<?xml version="1.0" encoding="UTF-8"?>
<svg xmlns="http://www.w3.org/2000/svg" width="99" height="100" viewBox="0 0 99 100" fill="none">
  <path d="M92.5458 43.5457C91.887 43.5457 91.2511 43.6455 90.6518 43.8297C90.5635 43.239 90.4645 42.6555 90.3531 42.0843C90.1996 41.2983 89.4383 40.7857 88.6517 40.9388C87.8657 41.0925 87.3528 41.854 87.5063 42.6402C87.6857 43.5583 87.8319 44.5105 87.946 45.4785C86.8005 46.6439 86.0922 48.24 86.0922 49.9994C86.0922 51.7584 86.8003 53.3546 87.9456 54.5198C87.3433 59.6668 85.7419 64.5562 83.1768 69.0611C83.1025 69.1908 82.9902 69.2421 82.909 69.262C82.84 69.279 82.7036 69.2943 82.5642 69.2053L80.172 67.6813C79.9773 67.5572 79.915 67.2996 80.0303 67.0954C81.5688 64.365 82.7313 61.4348 83.485 58.386C83.5997 57.9221 83.4784 57.4314 83.1607 57.0744C82.8431 56.7169 82.3695 56.5402 81.896 56.5991L78.3463 57.0456C78.8983 54.786 79.1932 52.4268 79.1932 49.9998C79.1932 47.5782 78.8991 45.2177 78.3461 42.9532L81.8958 43.4009C81.9563 43.4084 82.017 43.4123 82.0774 43.4123C82.4884 43.4123 82.8837 43.2375 83.1607 42.9258C83.4784 42.5686 83.5999 42.0781 83.4852 41.6142C82.7321 38.5667 81.57 35.6365 80.0306 32.905C79.915 32.6996 79.9782 32.4407 80.1724 32.3164L82.5627 30.7939C82.7027 30.7051 82.8396 30.7202 82.9086 30.7376C82.99 30.7577 83.1027 30.8092 83.1758 30.937C84.1415 32.6329 84.9878 34.4294 85.6912 36.277C85.976 37.0254 86.8141 37.4011 87.5624 37.1165C88.3109 36.8313 88.6867 35.9937 88.4019 35.2452C87.6457 33.2588 86.7354 31.3264 85.6953 29.4999C85.2403 28.7037 84.4986 28.1433 83.6062 27.9223C82.7228 27.7036 81.7755 27.8575 81.0061 28.3465L78.6124 29.8714C77.1202 30.8252 76.6331 32.783 77.5036 34.3287C78.5638 36.2099 79.4289 38.1939 80.0862 40.2491L77.4298 39.914C74.4499 31.6754 67.9193 25.0681 59.5836 22.0634L59.2502 19.414C61.3066 20.0716 63.2908 20.9367 65.1718 21.9966C66.7187 22.8673 68.6762 22.3797 69.6278 20.886L71.1516 18.4943C71.6408 17.7265 71.7963 16.7792 71.578 15.8954C71.3606 15.0156 70.7854 14.2536 69.9982 13.8038C65.5359 11.2627 60.7246 9.59965 55.6698 8.84632C55.8539 8.24749 55.9534 7.61192 55.9534 6.95354C55.9533 3.39516 53.0581 0.5 49.4995 0.5C45.9411 0.5 43.046 3.39516 43.046 6.95354C43.046 7.61192 43.1456 8.24749 43.3298 8.84632C38.2751 9.59965 33.4639 11.2629 29 13.8048C28.2146 14.2534 27.6396 15.0156 27.4222 15.8954C27.2039 16.7792 27.3594 17.7267 27.848 18.4936L29.3715 20.8879C30.3253 22.3803 32.2829 22.8675 33.8288 21.9966C35.71 20.9365 37.694 20.0714 39.7492 19.4141L39.4151 22.0635C31.0781 25.068 24.5478 31.6739 21.5691 39.9144L18.9142 40.2493C19.5715 38.1941 20.4366 36.2099 21.4969 34.3285C22.3672 32.7832 21.88 30.8254 20.3855 29.8698L17.9946 28.3487C17.2268 27.8597 16.2799 27.7038 15.3957 27.9223C14.5159 28.1396 13.7539 28.7149 13.3041 29.5021C10.763 33.9644 9.09994 38.7755 8.34662 43.8305C7.74779 43.6464 7.11241 43.5468 6.45422 43.5468C2.89565 43.5468 0.000488281 46.442 0.000488281 50.0004C0.000488281 53.559 2.89565 56.4541 6.45422 56.4541C7.1126 56.4541 7.74798 56.3545 8.34681 56.1705C9.10014 61.225 10.7634 66.0364 13.3053 70.5003C13.7539 71.2857 14.5161 71.8607 15.3959 72.0781C15.6583 72.1429 15.9261 72.1748 16.1933 72.1748C16.826 72.1748 17.4548 71.9957 17.9946 71.6517L20.3861 70.1281C21.8806 69.1765 22.3684 67.2192 21.4969 65.6715C20.4371 63.7909 19.5721 61.8067 18.9144 59.7503L21.5716 60.0846C24.5681 68.3579 31.1415 74.9317 39.4147 77.9285L39.7498 80.5862C37.6944 79.929 35.7102 79.0639 33.8288 78.0035C32.2829 77.1332 30.3257 77.6203 29.3701 79.115L27.849 81.5059C27.3598 82.2737 27.2043 83.2209 27.4226 84.1048C27.6399 84.9846 28.2152 85.7466 29.0023 86.1963C33.4645 88.7373 38.2756 90.4004 43.3302 91.1537C43.1461 91.7525 43.0464 92.3881 43.0464 93.0465C43.0464 96.6048 45.9415 99.5 49.4999 99.5C53.0585 99.5 55.9536 96.6048 55.9536 93.0465C55.9536 92.3881 55.8541 91.7525 55.67 91.1537C60.725 90.4004 65.5363 88.7371 70.0004 86.195C70.7858 85.7464 71.3608 84.9842 71.5782 84.1044C71.7965 83.2206 71.641 82.2731 71.1518 81.5057L69.6282 79.1142C68.6762 77.6197 66.7195 77.1321 65.1716 78.0033C63.2912 79.0631 61.3074 79.928 59.251 80.5857L59.5861 77.9281C67.8593 74.9313 74.4327 68.3575 77.4292 60.0842L80.0863 59.7499C79.4287 61.8063 78.5636 63.7905 77.5036 65.6715C76.6324 67.2188 77.1204 69.1761 78.6143 70.1275L81.006 71.6513C81.546 71.9953 82.1746 72.1744 82.8077 72.1744C83.0747 72.1744 83.3427 72.1425 83.6049 72.0777C84.4847 71.8604 85.2467 71.2851 85.6964 70.4979C88.2376 66.0354 89.9006 61.2243 90.654 56.1693C91.2526 56.3532 91.888 56.453 92.5462 56.453C96.1046 56.453 98.9997 53.5578 98.9997 49.9994C98.9993 46.4408 96.1042 43.5457 92.5458 43.5457ZM49.4995 3.40038C51.4588 3.40038 53.0529 4.99423 53.0529 6.95354C53.0529 8.91284 51.4588 10.5069 49.4995 10.5069C47.5402 10.5069 45.9464 8.91284 45.9464 6.95354C45.9464 4.99423 47.5402 3.40038 49.4995 3.40038ZM2.90048 50.0002C2.90048 48.0409 4.49453 46.447 6.45383 46.447C8.41313 46.447 10.007 48.0409 10.007 50.0002C10.007 51.9595 8.41313 53.5535 6.45383 53.5535C4.49453 53.5535 2.90048 51.9595 2.90048 50.0002ZM17.1038 56.5991C16.6289 56.5402 16.1568 56.7169 15.8391 57.0744C15.5214 57.4315 15.4001 57.9221 15.5148 58.386C16.2685 61.4348 17.431 64.365 18.9694 67.095C19.0848 67.2998 19.0223 67.5574 18.8274 67.6815L16.4354 69.2053C16.296 69.2945 16.1597 69.2788 16.0908 69.262C16.0096 69.2419 15.8973 69.1908 15.8242 69.063C13.2579 64.5566 11.6565 59.6672 11.0542 54.5205C12.1993 53.3554 12.9074 51.7592 12.9074 50.0004C12.9074 48.2416 12.1993 46.6454 11.0542 45.4802C11.6565 40.3334 13.2579 35.444 15.823 30.9391C15.8973 30.8094 16.0096 30.7581 16.0908 30.7382C16.16 30.7212 16.2962 30.7059 16.4364 30.7954L18.8257 32.3154C19.0219 32.4407 19.085 32.6998 18.9695 32.9048C17.43 35.6367 16.2677 38.5669 15.5148 41.6144C15.4001 42.0783 15.5216 42.569 15.8393 42.926C16.157 43.2833 16.6297 43.4604 17.1042 43.4011L20.6531 42.9534C20.1005 45.2177 19.8068 47.5782 19.8068 50C19.8068 52.427 20.1017 54.7864 20.6537 57.0458L17.1038 56.5991ZM49.4995 96.5996C47.5402 96.5996 45.9464 95.0058 45.9464 93.0465C45.9464 91.0872 47.5402 89.4931 49.4995 89.4931C51.4588 89.4931 53.0529 91.0872 53.0529 93.0465C53.0529 95.0058 51.4588 96.5996 49.4995 96.5996ZM56.5741 83.6608C56.9315 83.9785 57.422 84.099 57.8859 83.9851C60.9347 83.2314 63.8649 82.0689 66.5949 80.5305C66.8001 80.4151 67.0573 80.4776 67.1814 80.6725L68.7053 83.0645C68.7942 83.2039 68.7789 83.3402 68.7619 83.4091C68.7418 83.4903 68.6908 83.6026 68.5629 83.6757C64.0563 86.242 59.1667 87.8434 54.0197 88.4457C52.8545 87.3006 51.2585 86.5927 49.4995 86.5927C47.7407 86.5927 46.1449 87.3008 44.9798 88.4457C39.8329 87.8434 34.9437 86.242 30.4388 83.6769C30.3091 83.6026 30.2578 83.4903 30.2379 83.4091C30.2209 83.3402 30.2056 83.2037 30.2951 83.0636L31.8151 80.6742C31.9406 80.478 32.1997 80.4145 32.4045 80.5304C35.1365 82.0699 38.0666 83.2322 41.1141 83.9851C41.5782 84.099 42.0689 83.9783 42.4257 83.6606C42.7828 83.3429 42.9605 82.8698 42.9008 82.3957L42.4531 78.846C44.7129 79.398 47.0725 79.6931 49.4999 79.6931C51.9273 79.6931 54.2869 79.3982 56.5467 78.846L56.099 82.3957C56.0393 82.87 56.217 83.3431 56.5741 83.6608ZM49.4999 76.7925C44.0917 76.7925 39.0537 75.1803 34.8383 72.4136L35.3855 71.1368L36.7554 70.6985L41.3147 72.5711C42.0444 72.8705 42.8731 72.8509 43.588 72.5172L44.875 71.9164C46.2173 71.2897 46.8521 69.7158 46.3199 68.3333L45.9696 67.4233C45.7201 66.7754 45.2431 66.2431 44.6261 65.9242L44.1058 65.6555L46.7037 61.6067L51.0015 60.8857L51.4486 61.2763L50.5125 62.7448C50.0067 63.5388 49.9282 64.5288 50.3023 65.3925C50.6765 66.2562 51.4524 66.8761 52.3779 67.05L59.1756 68.3267C60.1986 68.5187 61.2418 68.1359 61.8979 67.3273L62.7891 66.2284C63.2935 65.6064 63.1982 64.6931 62.5762 64.1885C61.9541 63.6842 61.0409 63.7791 60.5362 64.4013L59.6706 65.4687L53.0123 64.2182L53.9257 62.7853C54.6838 61.5955 54.4628 60.0585 53.4007 59.131L52.8848 58.6803C52.2433 58.1197 51.3944 57.879 50.5531 58.0201L46.1939 58.7516C45.4075 58.8833 44.7093 59.3437 44.2786 60.0152L41.624 64.1527C41.1942 64.8223 41.0658 65.647 41.2719 66.4152C41.478 67.1834 42.0013 67.8335 42.708 68.1983L43.2722 68.4897L43.5901 69.3156L42.388 69.8767L37.834 68.0063C37.2178 67.7528 36.5288 67.7262 35.895 67.9288L34.4715 68.3843C33.6897 68.6347 33.0559 69.211 32.732 69.966L32.441 70.6449C26.4991 65.7264 22.7072 58.2978 22.7072 50C22.7072 38.5178 29.9854 28.5523 40.3819 24.798L41.4109 27.3612L39.7374 30.1262C39.4006 30.6829 39.2652 31.3444 39.3563 31.989L39.5648 33.4634C39.7179 34.547 40.4927 35.4542 41.5391 35.7748L43.5267 36.3837C44.395 36.6501 45.3446 36.4809 46.068 35.9322L48.821 33.8433L49.887 34.6785L48.7278 38.9314L43.5503 40.9908L40.9987 39.4923C40.4138 39.1485 39.7239 39.0263 39.056 39.1476L34.6488 39.951C33.1576 40.2226 32.1479 41.6123 32.3498 43.1141L32.8264 46.6597C32.8931 47.1547 33.0899 47.6246 33.3956 48.0185L36.93 52.574C37.456 53.2517 38.2493 53.6508 39.1069 53.6692C39.9631 53.6814 40.774 53.3227 41.3282 52.6685L43.2049 50.4532L48.1543 50.8222L50.0133 53.3952C50.4696 54.0271 51.1748 54.4465 51.9482 54.5457L54.6835 54.897C55.4351 54.9925 56.2085 54.7787 56.8027 54.3075L58.6518 52.841L62.7245 50.5735L65.9534 52.0262L66.191 57.4281L64.8737 59.0529C64.3692 59.6749 64.4645 60.5881 65.0867 61.0926C65.3555 61.3105 65.6784 61.4165 65.9992 61.4165C66.4215 61.4165 66.8399 61.2332 67.1265 60.8797L68.4605 59.2348C68.8971 58.6963 69.1206 58.0186 69.09 57.3267L68.8495 51.8566C68.8019 50.7819 68.1631 49.8401 67.1822 49.3987L63.8833 47.9144C63.0716 47.5494 62.122 47.5896 61.3437 48.0229L57.241 50.3069C57.1072 50.3815 56.9784 50.4673 56.8595 50.5617L55.0238 52.0163L52.3471 51.6727L50.4866 49.0976C49.9961 48.4191 49.236 47.9943 48.4016 47.9322L43.3857 47.5583C42.4852 47.4908 41.5981 47.8626 41.0146 48.5517L39.1697 50.7292L35.6986 46.255L35.2331 42.7924L39.5508 42.0056L42.1097 43.5086C42.8689 43.9543 43.773 44.0237 44.5911 43.6981L49.8315 41.6135C50.6541 41.2865 51.2842 40.5811 51.5172 39.7269L52.6975 35.3968C52.9978 34.2946 52.6107 33.1273 51.7113 32.4227L50.568 31.5269C49.5562 30.7347 48.1346 30.7241 47.1102 31.5002L44.3428 33.5995L42.4305 33.0138L42.2314 31.6062L43.9099 28.8332C44.3684 28.0758 44.4453 27.1332 44.1153 26.3116L43.1705 23.9587C44.1758 23.7158 45.2046 23.5294 46.2536 23.4027C47.0487 23.3066 47.6156 22.5845 47.5197 21.7892C47.4236 20.9941 46.7005 20.4301 45.9061 20.5231C44.7313 20.665 43.5793 20.875 42.4537 21.1482L42.9008 17.6037C42.9605 17.1296 42.783 16.6565 42.4257 16.3388C42.0687 16.0209 41.5774 15.8999 41.1141 16.0143C38.0666 16.7675 35.1365 17.9295 32.4049 19.4689C32.1997 19.5847 31.9406 19.5213 31.8169 19.3277L30.2946 16.9355C30.2056 16.7961 30.2209 16.6598 30.2379 16.5909C30.258 16.5097 30.3091 16.3974 30.4369 16.3243C34.9435 13.758 39.8329 12.1566 44.9796 11.5543C46.1447 12.6994 47.7407 13.4073 49.4993 13.4073C51.2581 13.4073 52.8541 12.6992 54.0195 11.5543C59.1665 12.1566 64.0559 13.758 68.5608 16.3233C68.6906 16.3976 68.7418 16.5099 68.7617 16.5911C68.7787 16.6599 68.794 16.7965 68.7051 16.9359L67.181 19.3281C67.0571 19.5228 66.7997 19.5851 66.5951 19.4698C63.8647 17.9313 60.9346 16.7688 57.8857 16.0151C57.4222 15.901 56.9313 16.0219 56.5741 16.3394C56.217 16.6569 56.0391 17.13 56.0989 17.6041L56.5447 21.1484C55.4322 20.8783 54.2937 20.6702 53.1327 20.5285C52.3365 20.4304 51.6145 20.9972 51.5174 21.7921C51.4203 22.5872 51.9861 23.3103 52.781 23.4074C66.1846 25.0436 76.2924 36.4759 76.2924 50C76.2926 64.7734 64.2735 76.7925 49.4999 76.7925ZM92.5458 53.5526C90.5865 53.5526 88.9926 51.9587 88.9926 49.9994C88.9926 48.0401 90.5865 46.4461 92.5458 46.4461C94.5051 46.4461 96.0989 48.0401 96.0989 49.9994C96.0989 51.9587 94.5051 53.5526 92.5458 53.5526Z" fill="#4C4C4C"></path>
  <path d="M70.1922 39.9655L69.6216 39.2115C69.1678 38.6119 68.5081 38.2233 67.7634 38.1169L65.5969 37.808L64.5421 36.0869C63.9299 35.0882 62.7887 34.5742 61.6353 34.778L58.2395 35.3772C57.2464 35.5528 56.4154 36.2506 56.0706 37.1983L55.6696 38.3016L53.387 40.2988C52.7036 40.8965 52.3467 41.7929 52.4322 42.6965C52.5174 43.6004 53.036 44.4141 53.8193 44.8731L55.4178 45.8103C56.3564 46.3604 57.5438 46.3206 58.4431 45.709L60.4272 44.3594L65.4677 46.0795C65.7684 46.182 66.0773 46.2317 66.3834 46.2317C67.1718 46.2317 67.94 45.9016 68.4874 45.2935L70.0393 43.5689C70.9456 42.5613 71.0099 41.0459 70.1922 39.9655ZM66.3614 43.3195L61.3311 41.6032C61.0355 41.5023 60.7275 41.4528 60.4204 41.4528C59.8572 41.4528 59.2972 41.6195 58.8235 41.9418L56.8471 43.2864L55.3679 42.4192L57.5933 40.4723C57.9514 40.1586 58.2264 39.7566 58.389 39.3094C58.389 39.3092 58.3892 39.3092 58.3892 39.3092L58.7827 38.2266L62.0934 37.6424L63.1406 39.3513C63.583 40.0728 64.3172 40.5554 65.1554 40.6749L67.3261 40.9845L67.8454 41.6709L66.3614 43.3195Z" fill="#4C4C4C"></path>
</svg>
