<?xml version="1.0" encoding="UTF-8"?>
<svg xmlns="http://www.w3.org/2000/svg" width="92" height="121" viewBox="0 0 92 121" fill="none">
  <path d="M90.4616 0.74788C89.9289 0.431006 89.2684 0.418116 88.7237 0.71413L85.2056 2.62522L81.6852 0.713896C81.1621 0.4296 80.5305 0.429834 80.0074 0.71413L76.4894 2.62522L72.9719 0.71413C72.4486 0.429834 71.8169 0.429834 71.2936 0.71413L67.7761 2.62498L64.2605 0.71413C63.7369 0.430069 63.1052 0.4296 62.5816 0.71413L59.0639 2.62545L55.546 0.71413C55.0228 0.429366 54.3907 0.430069 53.8674 0.71413L50.352 2.62498L46.8345 0.71413C46.3111 0.429834 45.6795 0.429834 45.1561 0.71413L41.6387 2.62498L38.123 0.71413C37.5995 0.429834 36.9676 0.429834 36.444 0.71413L32.9286 2.62498L29.4111 0.71413C28.8878 0.429366 28.2559 0.430069 27.7323 0.71413L24.2169 2.62498L20.6994 0.71413C20.1761 0.429366 19.5444 0.429834 19.0211 0.71413L15.5034 2.62498L11.988 0.71413C11.4644 0.430069 10.8327 0.4296 10.3092 0.71413L6.79167 2.62522L3.27629 0.71413C2.7316 0.418116 2.07114 0.431006 1.5384 0.74788C1.00567 1.06475 0.678955 1.63874 0.678955 2.25866V100.436C0.678955 101.407 1.46598 102.193 2.43676 102.193C3.40754 102.193 4.19457 101.407 4.19457 100.436V5.21505L5.95191 6.17036C6.4755 6.45442 7.10714 6.45489 7.63073 6.17036L11.1482 4.25951L14.6636 6.17036C15.1872 6.45442 15.8188 6.45489 16.3424 6.17036L19.8604 4.25927L23.3781 6.17036C23.9017 6.45536 24.5336 6.45466 25.0569 6.17036L28.5723 4.25951L32.0898 6.17036C32.6134 6.45536 33.2453 6.45466 33.7686 6.17036L37.2838 4.25951L40.7989 6.17036C41.3225 6.45442 41.9541 6.45489 42.4777 6.17036L45.9954 4.25927L49.5132 6.17036C50.0368 6.45536 50.6686 6.45466 51.192 6.17036L54.7074 4.25951L58.2251 6.17036C58.7482 6.45466 59.3799 6.45466 59.9034 6.17036L63.4209 4.25951L66.9363 6.17036C67.4599 6.45442 68.0915 6.45489 68.6151 6.17036L72.1329 4.25927L75.6506 6.17036C76.1739 6.45513 76.8056 6.45466 77.3289 6.17036L80.8471 4.25927L84.3674 6.1706C84.8908 6.45489 85.5222 6.45466 86.0453 6.17036L87.8055 5.21435V22.7805C87.8055 23.7515 88.5925 24.5383 89.5633 24.5383C90.534 24.5383 91.3211 23.7515 91.3211 22.7805V2.25866C91.3208 1.63897 90.9944 1.06475 90.4616 0.74788Z" fill="#4C4C4C"></path>
  <path d="M89.563 29.2246C88.5923 29.2246 87.8052 30.0114 87.8052 30.9824V116.984H4.19457V108.638C4.19457 107.667 3.40754 106.88 2.43676 106.88C1.46598 106.88 0.678955 107.667 0.678955 108.638V118.741C0.678955 119.713 1.46598 120.499 2.43676 120.499H89.563C90.5338 120.499 91.3208 119.713 91.3208 118.741V30.9824C91.3208 30.0114 90.5338 29.2246 89.563 29.2246Z" fill="#4C4C4C"></path>
  <path d="M64.3307 60.504C64.3307 50.3964 56.1077 42.1733 46.0001 42.1733C35.8925 42.1733 27.6694 50.3964 27.6694 60.504C27.6694 70.6116 35.8925 78.8346 46.0001 78.8346C56.1077 78.8346 64.3307 70.6116 64.3307 60.504ZM46.0001 45.689C47.1014 45.689 48.1737 45.8134 49.207 46.0426L45.5327 51.7351H43.5042L43.4356 51.6456C42.8585 50.8949 41.9862 50.42 41.0426 50.3422C40.1002 50.2649 39.1608 50.5909 38.4689 51.2368L36.9717 52.6351C35.8327 53.6992 35.5716 55.3904 36.3366 56.7477L37.8192 59.3799L35.4788 61.3416C34.1564 61.363 32.9691 62.1552 32.4429 63.3725L31.824 64.8048C31.4098 63.4428 31.185 61.9993 31.185 60.5037C31.185 52.3351 37.831 45.689 46.0001 45.689ZM33.8534 68.971L35.6316 64.8556C36.3865 64.8333 37.1161 64.5565 37.6957 64.0705L40.1721 61.9948C41.4138 60.954 41.738 59.1739 40.9427 57.7623L39.4568 55.1244L40.7482 53.9183L40.762 53.9363C41.3951 54.7592 42.3928 55.2505 43.4309 55.2505H45.6136C46.7618 55.2505 47.8193 54.6746 48.4423 53.7097L52.6108 47.2513C53.6433 47.7686 54.6079 48.4009 55.4861 49.135L51.7444 53.1514C49.9636 55.063 49.9181 57.987 51.6387 59.953C52.0657 60.4407 52.1475 61.1274 51.8475 61.7019L50.6013 64.0883C50.4218 64.4319 50.1227 64.6953 49.759 64.8294L48.146 65.4244C46.9289 65.8737 45.9398 66.7606 45.3612 67.9217L45.2602 68.1244C44.4738 69.7015 44.5697 71.607 45.5093 73.096L45.5513 73.1625C45.8688 73.6657 45.8702 74.3171 45.5548 74.8214L45.2557 75.2998C40.5399 75.0654 36.4006 72.6141 33.8534 68.971ZM49.2082 74.9651C49.4487 73.7161 49.222 72.3921 48.525 71.288L48.483 71.2214C48.1941 70.7637 48.1645 70.1782 48.4064 69.6931L48.5076 69.4901C48.6855 69.1336 48.9895 68.8608 49.3631 68.723L50.9758 68.1279C52.1594 67.6911 53.1333 66.8344 53.7173 65.7162L54.9635 63.3298C55.9401 61.4598 55.6734 59.2257 54.284 57.6381C53.7553 57.0341 53.7693 56.1355 54.3166 55.5481L57.9044 51.6969C59.7318 54.1606 60.8151 57.208 60.8151 60.504C60.8151 67.5713 55.8396 73.4949 49.2082 74.9651Z" fill="#4C4C4C"></path>
  <path d="M83.4903 79.4923C83.4903 77.9797 83.1153 76.4741 82.4058 75.1381L67.7408 47.5251C67.2854 46.668 66.2214 46.3422 65.3638 46.7971C64.5062 47.2525 64.1804 48.3166 64.6358 49.1742L79.3009 76.7872C79.7417 77.6173 79.9747 78.5527 79.9747 79.4926C79.9747 82.6726 77.3874 85.2598 74.2074 85.2598H53.2103L55.0966 83.3736C55.783 82.6869 55.783 81.5741 55.0966 80.8876C54.4101 80.2013 53.297 80.2013 52.6108 80.8876L47.7238 85.7747C47.0374 86.4615 47.0374 87.5743 47.7238 88.2607L52.6108 93.1479C52.9539 93.491 53.4039 93.6626 53.8537 93.6626C54.3034 93.6626 54.7534 93.491 55.0966 93.1479C55.783 92.4612 55.783 91.3484 55.0966 90.6619L53.2103 88.7757H74.2074C79.3259 88.7754 83.4903 84.6111 83.4903 79.4923Z" fill="#4C4C4C"></path>
  <path d="M8.94824 79.4919C8.94824 84.6106 13.1126 88.7747 18.2313 88.7747H41.8307C42.8015 88.7747 43.5885 87.9879 43.5885 87.0169C43.5885 86.0459 42.8015 85.2591 41.8307 85.2591H18.2313C15.0511 85.2591 12.4639 82.6718 12.4639 79.4919C12.4639 78.552 12.6968 77.6166 13.1377 76.7865L20.3241 63.2544L21.1702 65.8768C21.4104 66.6214 22.1004 67.0953 22.8426 67.0953C23.0215 67.0953 23.2036 67.0679 23.3829 67.01C24.3068 66.7119 24.814 65.7212 24.5158 64.7975L22.3934 58.2203C22.0952 57.2966 21.105 56.789 20.1806 57.0871L13.6034 59.2096C12.6795 59.5077 12.1723 60.4984 12.4704 61.4221C12.7685 62.346 13.7592 62.8546 14.6831 62.5553L17.1349 61.764L10.0325 75.1377C9.32324 76.4736 8.94824 77.9792 8.94824 79.4919Z" fill="#4C4C4C"></path>
  <path d="M65.236 33.7072C64.3032 33.4389 63.3294 33.9779 63.0608 34.9107L62.3521 37.3745L58.1418 29.4494C55.7938 25.0281 51.2254 22.2815 46.2191 22.2815C41.2131 22.2815 36.6445 25.0281 34.2965 29.4494L22.5436 51.5794C22.0882 52.4368 22.4142 53.5008 23.2716 53.9565C23.5343 54.0959 23.8165 54.1622 24.0945 54.1622C24.724 54.162 25.3327 53.8231 25.6484 53.2285L37.4013 31.0984C39.1378 27.8287 42.5165 25.7973 46.2189 25.7973C49.9213 25.7973 53.3001 27.8287 55.0368 31.0987L59.3429 39.2038L56.6835 38.4388C55.75 38.1702 54.7766 38.7093 54.5083 39.6423C54.2399 40.5751 54.7785 41.5492 55.7115 41.8175L62.3535 43.7279C62.5159 43.7745 62.6792 43.7968 62.8403 43.7968C63.6041 43.7968 64.307 43.295 64.5287 42.5244L66.4393 35.8825C66.7077 34.9494 66.1691 33.9756 65.236 33.7072Z" fill="#4C4C4C"></path>
</svg>
