<?xml version="1.0" encoding="UTF-8"?>
<svg xmlns="http://www.w3.org/2000/svg" width="114" height="121" viewBox="0 0 114 121" fill="none">
  <path d="M66.8501 53.9177C66.8501 52.9467 66.0633 52.1599 65.0923 52.1599H63.5444C62.5734 52.1599 61.7866 52.9467 61.7866 53.9177C61.7866 54.8887 62.5734 55.6755 63.5444 55.6755H65.0923C66.0633 55.6755 66.8501 54.8887 66.8501 53.9177Z" fill="#4C4C4C"></path>
  <path d="M64.3921 73.6332C64.3921 72.6622 63.6053 71.8754 62.6342 71.8754H61.0862C60.1152 71.8754 59.3284 72.6622 59.3284 73.6332C59.3284 74.6042 60.1152 75.391 61.0862 75.391H62.6342C63.6053 75.391 64.3921 74.6042 64.3921 73.6332Z" fill="#4C4C4C"></path>
  <path d="M48.0588 83.3713H46.511C45.54 83.3713 44.7532 84.1581 44.7532 85.1292C44.7532 86.1002 45.54 86.887 46.511 86.887H48.0588C49.0298 86.887 49.8166 86.1002 49.8166 85.1292C49.8166 84.1581 49.0296 83.3713 48.0588 83.3713Z" fill="#4C4C4C"></path>
  <path d="M62.7708 99.6824H64.3188C65.2898 99.6824 66.0766 98.8956 66.0766 97.9246C66.0766 96.9535 65.2898 96.1667 64.3188 96.1667H62.7708C61.7997 96.1667 61.0129 96.9535 61.0129 97.9246C61.0129 98.8956 61.8 99.6824 62.7708 99.6824Z" fill="#4C4C4C"></path>
  <path d="M77.7422 64.0713H79.29C80.261 64.0713 81.0478 63.2845 81.0478 62.3135C81.0478 61.3425 80.261 60.5557 79.29 60.5557H77.7422C76.7712 60.5557 75.9844 61.3425 75.9844 62.3135C75.9844 63.2845 76.7712 64.0713 77.7422 64.0713Z" fill="#4C4C4C"></path>
  <path d="M113.703 47.9757C113.556 47.6164 110.038 39.1594 103.427 37.7902C101.192 37.3268 98.9605 37.7489 96.9739 38.5193C97.7443 36.5328 98.1666 34.3015 97.7037 32.0667C96.3345 25.4557 87.8775 21.9379 87.5182 21.7912C86.8573 21.5224 86.0986 21.679 85.5989 22.1887C85.3275 22.466 78.9633 29.0536 80.3325 35.6646C81.2677 40.1794 85.507 43.2502 88.2167 44.7912L85.437 47.5707C83.6728 45.9523 81.7596 44.4671 79.7013 43.1426C78.8848 42.6174 77.797 42.8536 77.2718 43.6697C76.7466 44.4861 76.9826 45.574 77.7989 46.0993C86.535 51.7201 92.4917 60.4396 94.6217 70.3258L87.7425 73.5594C87.0527 73.8838 86.2235 73.7851 85.6294 73.3087L82.6849 70.9483C80.9119 69.5265 78.4019 69.3419 76.4402 70.4884L71.5919 73.3213C69.4214 74.5891 68.3798 77.1651 69.059 79.5857L71.3939 87.9075C71.7808 89.2861 72.4961 90.573 73.4622 91.6289L76.7133 95.1827C77.194 95.7077 77.4893 96.3881 77.5444 97.0983L77.8905 101.531C77.9419 102.186 77.7935 102.832 77.4621 103.399L71.0798 114.318C66.7171 116.038 61.967 116.984 57.0004 116.984C55.3319 116.984 53.6877 116.877 52.0745 116.67L52.6075 116.206C54.1968 114.816 54.8566 112.683 54.329 110.638L51.9756 101.533C51.5685 99.957 50.4948 98.6445 49.0302 97.9313C48.1572 97.5066 47.1055 97.8694 46.6804 98.7422C46.2554 99.615 46.6182 100.667 47.4913 101.092C48.029 101.354 48.4229 101.835 48.572 102.413L50.9251 111.517C51.1185 112.267 50.8766 113.049 50.2951 113.557L47.6779 115.84C41.2761 114.242 35.5049 111.036 30.8171 106.679L33.6467 102.257C34.5924 100.779 34.7031 98.8814 33.9355 97.3038L31.7996 92.913C31.167 91.6127 30.0059 90.6422 28.6135 90.2498L19.6294 87.7193C18.8991 84.7621 18.5089 81.6724 18.5089 78.4928C18.5089 59.0113 33.0575 42.8661 51.8603 40.3456L48.5394 43.2015C47.3122 44.2568 46.6084 45.7899 46.6084 47.4076V51.943C46.6084 53.5273 47.2872 55.0377 48.4675 56.0844L51.9625 59.1974C52.3954 59.5827 52.6436 60.1351 52.6436 60.7133V65.2321C52.6436 65.7901 52.4101 66.3292 52.0021 66.7119L47.1721 71.2515C46.604 71.7855 45.7982 71.9467 45.0688 71.6741L41.3387 70.2768C40.7553 70.0586 40.3103 69.5922 40.1181 68.9973L39.6873 67.663C38.9467 65.3624 36.8256 63.8164 34.4091 63.8164H31.6857C29.4472 63.8164 27.4404 65.1507 26.5728 67.2161L24.3706 72.4593C23.9658 73.4193 23.8409 74.4721 24.0094 75.5052L25.0831 82.057C25.4004 83.9866 26.7303 85.6244 28.5542 86.3311L32.352 87.8032C32.7959 87.975 33.1667 88.2993 33.3964 88.7175L37.1087 95.4644C37.7141 96.566 38.686 97.4367 39.8495 97.9174L40.0206 97.9877C40.239 98.0775 40.4649 98.1197 40.6874 98.1197C41.3792 98.1197 42.0353 97.7086 42.3142 97.0289C42.6826 96.1308 42.2535 95.104 41.3553 94.7353L41.188 94.6666C40.7652 94.492 40.4108 94.174 40.1889 93.7706L36.4768 87.0236C35.8494 85.8822 34.835 84.9946 33.6214 84.5249L29.8243 83.0531C29.1556 82.7941 28.6679 82.1936 28.5519 81.4874L27.4787 74.938C27.4168 74.5598 27.4622 74.1749 27.6106 73.8229L29.8135 68.5773C30.1311 67.8208 30.8659 67.3321 31.685 67.3321H34.4084C35.2925 67.3321 36.0688 67.8979 36.3402 68.7416L36.7717 70.078C37.2964 71.7013 38.5121 72.974 40.1059 73.5695L43.8353 74.9666C45.827 75.712 48.0285 75.2706 49.5789 73.8135L54.408 69.2746C55.5205 68.2309 56.1585 66.7574 56.1585 65.2321V60.7133C56.1585 59.1327 55.4807 57.6226 54.2994 56.5717L50.8021 53.4566C50.3706 53.0741 50.1233 52.5223 50.1233 51.943V47.4076C50.1233 46.8153 50.3814 46.2537 50.8314 45.867L57.6435 40.0088C62.1822 40.0826 66.6098 40.9367 70.8133 42.5539C71.7204 42.9022 72.7366 42.4503 73.0851 41.5444C73.4336 40.6383 72.9818 39.6211 72.0754 39.2726C67.8124 37.6324 63.3403 36.7113 58.7577 36.5236V32.5889C60.2488 32.9988 62.2713 33.4088 64.4029 33.4088C66.5681 33.4088 68.8446 32.9857 70.7864 31.7105H70.7866C76.429 28.0041 76.5872 18.8456 76.5914 18.4577C76.5987 17.7436 76.1735 17.0962 75.5151 16.8194C75.2332 16.7006 69.9103 14.5073 64.905 15.4C65.1785 14.4946 65.3411 13.544 65.3411 12.5578C65.3411 6.02969 58.3077 1.02811 58.0084 0.818341C57.4028 0.393886 56.5973 0.393886 55.9916 0.818341C55.6923 1.02811 48.659 6.02945 48.659 12.5578C48.659 13.544 48.8216 14.4946 49.0951 15.4C44.09 14.5075 38.7671 16.7011 38.4849 16.8196C37.8266 17.0967 37.4014 17.7438 37.4087 18.4579C37.4129 18.8458 37.5709 28.0041 43.2135 31.7107H43.2137C45.1557 32.9862 47.4315 33.409 49.5972 33.409C51.7286 33.409 53.7512 32.9991 55.2423 32.5891V36.5257C44.9832 36.9504 35.6631 41.0703 28.5805 47.5885L25.7834 44.7915C28.4933 43.2504 32.7336 40.1792 33.6692 35.6635C35.0361 29.0543 28.6726 22.4667 28.4009 22.1897C27.9015 21.6801 27.1442 21.5229 26.4828 21.7917C26.4333 21.8118 25.2591 22.293 23.735 23.2015C22.9008 23.6986 22.6278 24.7776 23.1249 25.6113C23.622 26.4455 24.7013 26.7178 25.5347 26.2214C25.9643 25.9652 26.3607 25.7491 26.6982 25.5752C27.2086 26.1982 27.8886 27.0996 28.523 28.1669C29.5742 29.9353 30.7231 32.5479 30.2262 34.951C29.728 37.3557 27.6359 39.2977 25.9686 40.5031C25.7461 40.6641 25.5254 40.815 25.3079 40.9592L26.7031 34.2227C26.9002 33.2719 26.289 32.3419 25.3386 32.145C24.3858 31.947 23.4575 32.5594 23.2608 33.5095L21.8656 40.2457C21.7233 40.0273 21.5811 39.8014 21.4409 39.5656C20.39 37.7972 19.2415 35.1849 19.74 32.7792C19.8509 32.2413 20.0468 31.7011 20.322 31.1733C20.7713 30.3124 20.4378 29.2507 19.5771 28.8016C18.7167 28.3519 17.6546 28.6854 17.2055 29.5465C16.7789 30.3635 16.4731 31.2127 16.2971 32.0681C15.8339 34.3027 16.2563 36.5339 17.0269 38.5205C15.0401 37.7499 12.8084 37.3275 10.5724 37.7909C3.96162 39.1601 0.443638 47.6171 0.297153 47.9764C0.0276209 48.6376 0.184653 49.3962 0.69442 49.8957C0.944733 50.1409 6.3417 55.355 12.2543 55.355C12.8888 55.355 13.5293 55.2948 14.1703 55.1621C18.6846 54.2267 21.7559 49.9873 23.2969 47.2777L26.094 50.0745C19.2064 57.5591 14.9932 67.5425 14.9932 78.4928C14.9932 101.656 33.8375 120.5 57.0004 120.5C80.1633 120.5 99.0076 101.656 99.0076 78.4928C99.0076 67.7818 94.9887 57.7077 87.9286 50.0513L90.7027 47.2772C92.2437 49.9869 95.3147 54.2265 99.8295 55.1614C100.471 55.2943 101.111 55.3543 101.746 55.3543C107.658 55.3536 113.055 50.1401 113.305 49.895C113.815 49.3953 113.972 48.6369 113.703 47.9757ZM72.9937 19.6481C72.7676 21.926 71.9308 26.7525 68.8568 28.7719C66.6255 30.2374 63.5053 30.0333 61.1285 29.5451L66.8821 25.7658C67.6936 25.233 67.9195 24.143 67.3863 23.3315C66.8535 22.5199 65.7632 22.2942 64.9521 22.8274L59.1981 26.6067C59.6941 24.2313 60.7462 21.2868 62.9774 19.8213C66.0525 17.8019 70.8152 18.9513 72.9937 19.6481ZM54.9775 6.49328C55.7024 5.6657 56.4362 4.98367 57.0004 4.50062C57.5645 4.9839 58.2984 5.6657 59.0233 6.49328C60.3018 7.95321 61.826 10.1906 61.826 12.5573C61.826 14.9242 60.3018 17.1616 59.0233 18.6215C58.9349 18.7223 58.8466 18.821 58.7582 18.9173V12.5573C58.7582 11.5863 57.9714 10.7995 57.0004 10.7995C56.0294 10.7995 55.2426 11.5863 55.2426 12.5573V18.9173C55.1542 18.821 55.0659 18.7223 54.9775 18.6215C53.699 17.1616 52.1748 14.9242 52.1748 12.5573C52.1748 10.1906 53.699 7.95321 54.9775 6.49328ZM45.1438 28.7716C42.0695 26.752 41.2328 21.9241 41.0071 19.6479C43.187 18.9506 47.9493 17.8019 51.0231 19.8208C53.2544 21.2866 54.3067 24.2313 54.8027 26.6065L49.0485 22.8269C48.2376 22.294 47.1475 22.5194 46.6143 23.3311C46.0813 24.1425 46.307 25.2323 47.1184 25.7653L52.8756 29.5467C50.3844 30.0438 47.2841 30.177 45.1438 28.7716ZM13.4581 51.7189C11.0529 52.2153 8.44101 51.0685 6.67241 50.0171C5.60061 49.3801 4.69615 48.6969 4.07295 48.1862C5.28889 45.8154 7.91952 41.9297 11.2863 41.2322C13.6906 40.7354 16.3034 41.8826 18.072 42.934C18.308 43.0742 18.5342 43.2167 18.7526 43.359L12.0155 44.7542C11.0648 44.9511 10.4538 45.8813 10.6509 46.8319C10.8227 47.6623 11.5542 48.2335 12.3703 48.2335C12.4884 48.2335 12.6084 48.2213 12.7287 48.1965L19.4653 46.8012C19.3214 47.0185 19.1703 47.2393 19.0095 47.4615C17.8043 49.1293 15.8625 51.2209 13.4581 51.7189ZM27.6603 93.6335C28.0876 93.754 28.4443 94.0519 28.6383 94.451L30.7742 98.8418C31.0098 99.3258 30.9755 99.9084 30.6854 100.362L28.2917 104.102C25.0847 100.511 22.538 96.3185 20.8489 91.7147L27.6603 93.6335ZM83.775 34.9514C83.2772 32.5472 84.4254 29.9344 85.4768 28.1658C86.111 27.0984 86.791 26.1975 87.301 25.5745C88.017 25.9434 88.9985 26.5005 90.0045 27.228C91.6716 28.4337 93.7634 30.3755 94.2615 32.7797C94.7593 35.1839 93.6111 37.7967 92.5596 39.5653C92.4195 39.8014 92.277 40.0273 92.1347 40.246L90.7395 33.5091C90.5428 32.5584 89.6126 31.9465 88.6618 32.1445C87.7111 32.3414 87.1001 33.2717 87.2972 34.2223L88.6941 40.9671C86.581 39.5562 84.2944 37.4583 83.775 34.9514ZM76.8084 111.484L80.4975 105.173C81.1922 103.984 81.503 102.63 81.3959 101.257L81.0497 96.8245C80.9337 95.3362 80.3147 93.9101 79.3071 92.8092L76.0561 89.2556C75.4594 88.6036 75.0178 87.8086 74.7787 86.9571L72.4439 78.6356C72.1968 77.7548 72.5756 76.8177 73.3654 76.3563L78.214 73.5234C78.9274 73.1066 79.8403 73.1734 80.4858 73.6907L83.4302 76.0511C85.0636 77.3608 87.3436 77.6317 89.2378 76.7406L95.2203 73.9281C95.3977 75.4314 95.4917 76.9541 95.4917 78.4921C95.4919 92.4778 87.9942 104.743 76.8084 111.484ZM107.328 50.0173C105.56 51.0683 102.948 52.216 100.543 51.7191C98.1383 51.2211 96.1965 49.1293 94.9911 47.4622C94.8303 47.2397 94.6791 47.0192 94.5352 46.8019L101.272 48.1972C101.393 48.222 101.512 48.2342 101.63 48.2342C102.446 48.2342 103.178 47.6628 103.35 46.8326C103.547 45.8818 102.936 44.9518 101.985 44.7549L95.2484 43.3597C95.4669 43.2174 95.693 43.0749 95.929 42.9347C97.6974 41.8838 100.311 40.7358 102.715 41.2329C105.119 41.731 107.061 43.8228 108.266 45.4899C108.994 46.4958 109.551 47.4776 109.92 48.1932C109.297 48.7032 108.395 49.3831 107.328 50.0173Z" fill="#4C4C4C"></path>
</svg>
