<svg width="24" height="25" viewBox="0 0 24 25" fill="none" xmlns="http://www.w3.org/2000/svg">
<path d="M12.4657 21.4707C13.7025 19.7641 14.5623 17.8727 15.0448 15.9092M15.0448 8.2549C14.5623 6.29138 13.7025 4.39997 12.4657 2.69336M11.5343 2.69336C10.2975 4.39997 9.43774 6.29138 8.9552 8.2549M8.9552 15.9092C9.43774 17.8727 10.2975 19.7641 11.5343 21.4707M21.3887 12.5477C19.6821 13.7846 17.7907 14.6443 15.8271 15.1268M8.17286 15.1268C6.20935 14.6443 4.31793 13.7846 2.61133 12.5477M2.61133 11.6164C4.31793 10.3795 6.20935 9.51978 8.17286 9.03724M15.8271 9.03724C17.7907 9.51978 19.6821 10.3795 21.3887 11.6164M13.2481 2.76417C17.4412 3.32047 20.7616 6.64078 21.3179 10.8339C19.5782 9.65344 17.6681 8.83845 15.6931 8.38893C15.2436 6.41391 14.4286 4.50381 13.2481 2.76417ZM2.68214 10.8339C3.23844 6.64078 6.55875 3.32047 10.7519 2.76417C9.57141 4.50381 8.75642 6.41391 8.30689 8.38892C6.33188 8.83845 4.42178 9.65344 2.68214 10.8339ZM21.3179 13.3302C20.7616 17.5233 17.4412 20.8436 13.2481 21.3999C14.4286 19.6602 15.2436 17.7501 15.6931 15.7751C17.6681 15.3256 19.5782 14.5106 21.3179 13.3302ZM14.3983 16.0163C13.9266 17.8057 13.1271 19.5282 12 21.0907C10.8729 19.5282 10.0735 17.8057 9.60167 16.0163C11.1917 16.2477 12.8083 16.2477 14.3983 16.0163ZM8.30689 15.7751C8.75642 17.7501 9.57141 19.6602 10.7519 21.3999C6.55875 20.8436 3.23844 17.5233 2.68214 13.3302C4.42178 14.5106 6.33188 15.3256 8.30689 15.7751ZM14.6746 14.7566C12.9059 15.0676 11.0941 15.0676 9.32541 14.7566C9.01445 12.9879 9.01445 11.1762 9.32541 9.40744C11.0941 9.09648 12.9059 9.09649 14.6746 9.40745C14.9855 11.1762 14.9855 12.9879 14.6746 14.7566ZM8.06574 9.6837C7.83434 11.2737 7.83434 12.8903 8.06574 14.4804C6.27628 14.0086 4.5538 13.2091 2.99131 12.082C4.5538 10.9549 6.27628 10.1555 8.06574 9.6837ZM9.60167 8.14777C10.0735 6.35832 10.8729 4.63583 12 3.07335C13.1271 4.63583 13.9266 6.35832 14.3983 8.14777C12.8083 7.91637 11.1917 7.91637 9.60167 8.14777ZM15.9343 14.4804C16.1657 12.8903 16.1657 11.2737 15.9343 9.6837C17.7237 10.1555 19.4462 10.9549 21.0087 12.082C19.4462 13.2091 17.7237 14.0086 15.9343 14.4804ZM15.188 15.2701C15.6144 13.1673 15.6144 10.9968 15.188 8.89399C13.0853 8.46764 10.9147 8.46763 8.81195 8.89398C8.3856 10.9968 8.3856 13.1673 8.81195 15.2701C10.9147 15.6964 13.0853 15.6964 15.188 15.2701Z" stroke="#8D8D8E" stroke-width="1.2"/>
</svg>
