<svg width="18" height="18" viewBox="0 0 18 18" fill="none" xmlns="http://www.w3.org/2000/svg">
<path d="M0.6 4C0.6 2.12223 2.12223 0.6 4 0.6C5.87777 0.6 7.4 2.12223 7.4 4C7.4 5.87777 5.87777 7.4 4 7.4C2.12223 7.4 0.6 5.87777 0.6 4ZM0.6 14C0.6 12.1222 2.12223 10.6 4 10.6C5.87777 10.6 7.4 12.1222 7.4 14C7.4 15.8778 5.87777 17.4 4 17.4C2.12223 17.4 0.6 15.8778 0.6 14ZM10.6 4C10.6 2.12223 12.1222 0.6 14 0.6C15.8778 0.6 17.4 2.12223 17.4 4C17.4 5.87777 15.8778 7.4 14 7.4C12.1222 7.4 10.6 5.87777 10.6 4ZM10.6 14C10.6 12.1222 12.1222 10.6 14 10.6C15.8778 10.6 17.4 12.1222 17.4 14C17.4 15.8778 15.8778 17.4 14 17.4C12.1222 17.4 10.6 15.8778 10.6 14Z" stroke="#8D8D8E" stroke-width="1.2"/>
</svg>
