<svg width="16" height="16" viewBox="0 0 16 16" fill="none" xmlns="http://www.w3.org/2000/svg">
<path d="M14.2998 8.79769C15.2814 6.32929 15.2317 3.55658 14.1461 1.14676L10.8689 1.08205C10.8146 1.08098 10.77 1.12447 10.7696 1.17873L10.742 5.1989C10.7418 5.22496 10.7521 5.25 10.7705 5.26842L14.2998 8.79769ZM14.2998 8.79769C13.8132 10.0212 13.0733 11.1699 12.0806 12.1626C11.0879 13.1554 9.93915 13.8953 8.71566 14.3818M8.71566 14.3818C6.24726 15.3634 3.47455 15.3137 1.06473 14.2281L1.00002 10.9509C0.998948 10.8967 1.04244 10.852 1.0967 10.8516L5.11687 10.824C5.14292 10.8238 5.16796 10.8341 5.18639 10.8525L8.71566 14.3818Z" stroke="#8D8D8E" stroke-width="1.2"/>
</svg>
