<svg width="1366" height="488" viewBox="0 0 1366 488" fill="none" xmlns="http://www.w3.org/2000/svg">
<path d="M183.784 300H161.584L156.384 266.2H84.9836L65.9836 300H42.1836L121.784 160H161.184L183.784 300ZM140.984 166.4L95.9836 246.4H153.384L140.984 166.4ZM240.101 197.8L234.501 223.8C245.701 201.133 260.901 192.2 280.101 197L275.901 217C265.501 214.067 255.834 215.067 246.901 220C238.101 224.933 232.634 232.333 230.501 242.2L218.301 300H197.301L219.101 197.8H240.101ZM295.059 300H274.059L295.859 197.8H316.859L295.059 300ZM338.59 197.8H423.79L416.39 232.2L328.59 281.4H405.99L401.99 300H316.79L324.19 265.6L411.99 216.4H334.59L338.59 197.8ZM485.487 195.8C498.02 195.8 507.62 199.2 514.287 206C520.953 212.667 522.887 222.6 520.087 235.8L506.487 300H485.487L490.887 274.4C481.553 292.8 467.953 302 450.087 302C442.087 302 435.487 299.6 430.287 294.8C425.087 290 422.487 283.667 422.487 275.8C422.487 266.467 426.087 258.8 433.287 252.8C440.62 246.8 450.82 243.133 463.887 241.8L487.087 239.4C491.353 238.867 494.42 237.867 496.287 236.4C498.287 234.933 499.62 232.6 500.287 229.4C501.22 224.467 500.153 220.6 497.087 217.8C494.02 214.867 489.487 213.4 483.487 213.4C469.353 213.4 459.953 219.667 455.287 232.2L435.287 227.2C439.02 217.6 445.287 210 454.087 204.4C463.02 198.667 473.487 195.8 485.487 195.8ZM457.487 285C466.287 285 474.287 282.133 481.487 276.4C488.687 270.667 493.087 264 494.687 256.4L495.887 250.2C493.22 253.267 489.02 255 483.287 255.4L463.487 257.8C457.22 258.467 452.287 260.267 448.687 263.2C445.22 266 443.487 269.4 443.487 273.4C443.487 277 444.687 279.867 447.087 282C449.62 284 453.087 285 457.487 285ZM677.074 244.2C677.074 229.4 681.074 215.333 689.074 202C697.208 188.667 708.008 178 721.474 170C734.941 162 749.141 158 764.074 158C778.474 158 790.741 161.733 800.874 169.2C811.141 176.667 817.874 186.267 821.074 198L813.674 201.2C811.008 190.533 805.208 181.933 796.274 175.4C787.341 168.867 776.608 165.6 764.074 165.6C743.408 165.6 725.074 173.6 709.074 189.6C693.074 205.467 685.074 223.667 685.074 244.2C685.074 258.867 689.808 270.933 699.274 280.4C708.874 289.733 721.341 294.4 736.674 294.4C749.208 294.4 761.274 291.2 772.874 284.8C784.474 278.267 794.008 269.6 801.474 258.8L808.474 262.6C800.474 274.2 790.074 283.667 777.274 291C764.608 298.333 751.074 302 736.674 302C719.208 302 704.874 296.6 693.674 285.8C682.608 275 677.074 261.133 677.074 244.2ZM872.195 173.4C871.128 172.2 870.595 170.733 870.595 169C870.595 167.267 871.128 165.867 872.195 164.8C873.395 163.6 874.861 163 876.595 163C878.328 163 879.728 163.6 880.795 164.8C881.995 165.867 882.595 167.267 882.595 169C882.595 170.733 881.995 172.2 880.795 173.4C879.728 174.467 878.328 175 876.595 175C874.861 175 873.395 174.467 872.195 173.4ZM912.195 173.4C911.128 172.2 910.595 170.733 910.595 169C910.595 167.267 911.128 165.867 912.195 164.8C913.395 163.6 914.861 163 916.595 163C918.328 163 919.728 163.6 920.795 164.8C921.995 165.867 922.595 167.267 922.595 169C922.595 170.733 921.995 172.2 920.795 173.4C919.728 174.467 918.328 175 916.595 175C914.861 175 913.395 174.467 912.195 173.4ZM826.595 260C826.595 243.6 832.795 229.2 845.195 216.8C857.595 204.267 872.061 198 888.595 198C901.261 198 911.661 201.933 919.795 209.8C928.061 217.667 932.195 227.733 932.195 240C932.195 256.4 925.995 270.867 913.595 283.4C901.195 295.8 886.728 302 870.195 302C857.528 302 847.061 298.067 838.795 290.2C830.661 282.333 826.595 272.267 826.595 260ZM834.595 260C834.595 270.133 837.861 278.4 844.395 284.8C850.928 291.2 859.528 294.4 870.195 294.4C884.595 294.4 897.195 288.933 907.995 278C918.795 267.067 924.195 254.4 924.195 240C924.195 229.867 920.928 221.6 914.395 215.2C907.861 208.8 899.261 205.6 888.595 205.6C874.195 205.6 861.595 211.067 850.795 222C839.995 232.933 834.595 245.6 834.595 260ZM954.01 200H1036.01L1033.41 212.4L940.21 292.4H1016.41L1014.81 300H932.81L935.41 287.6L1028.61 207.6H952.41L954.01 200ZM1081.61 173.4C1080.54 172.2 1080.01 170.733 1080.01 169C1080.01 167.267 1080.54 165.867 1081.61 164.8C1082.81 163.6 1084.28 163 1086.01 163C1087.74 163 1089.14 163.6 1090.21 164.8C1091.41 165.867 1092.01 167.267 1092.01 169C1092.01 170.733 1091.41 172.2 1090.21 173.4C1089.14 174.467 1087.74 175 1086.01 175C1084.28 175 1082.81 174.467 1081.61 173.4ZM1121.61 173.4C1120.54 172.2 1120.01 170.733 1120.01 169C1120.01 167.267 1120.54 165.867 1121.61 164.8C1122.81 163.6 1124.28 163 1126.01 163C1127.74 163 1129.14 163.6 1130.21 164.8C1131.41 165.867 1132.01 167.267 1132.01 169C1132.01 170.733 1131.41 172.2 1130.21 173.4C1129.14 174.467 1127.74 175 1126.01 175C1124.28 175 1122.81 174.467 1121.61 173.4ZM1045.01 256.8L1057.21 200H1065.21L1052.61 258.8C1050.34 269.467 1051.81 278.067 1057.01 284.6C1062.21 291.133 1069.68 294.4 1079.41 294.4C1089.68 294.4 1098.68 291.2 1106.41 284.8C1114.14 278.4 1119.08 270.067 1121.21 259.8L1134.01 200H1142.01L1128.81 261.8C1126.14 273.933 1120.14 283.667 1110.81 291C1101.48 298.333 1091.01 302 1079.41 302C1066.34 302 1056.61 297.733 1050.21 289.2C1043.94 280.667 1042.21 269.867 1045.01 256.8ZM1283.35 198C1294.29 198 1302.62 202.4 1308.35 211.2C1314.22 220 1315.82 230.667 1313.15 243.2L1301.15 300H1293.15L1305.15 243.2C1307.55 232 1306.49 222.933 1301.95 216C1297.42 209.067 1290.69 205.6 1281.75 205.6C1272.15 205.6 1263.42 209.133 1255.55 216.2C1247.82 223.133 1242.82 231.8 1240.55 242.2L1228.35 300H1220.35L1232.35 243.2C1234.75 232 1233.69 222.933 1229.15 216C1224.62 209.067 1217.89 205.6 1208.95 205.6C1199.35 205.6 1190.62 209.133 1182.75 216.2C1175.02 223.133 1170.02 231.8 1167.75 242.2L1155.55 300H1147.55L1168.75 200H1176.75L1171.75 223.4C1176.15 215.533 1181.75 209.333 1188.55 204.8C1195.49 200.267 1202.82 198 1210.55 198C1219.09 198 1226.22 200.733 1231.95 206.2C1237.82 211.533 1241.09 218.533 1241.75 227.2C1245.89 218.4 1251.69 211.333 1259.15 206C1266.62 200.667 1274.69 198 1283.35 198Z" fill="white"/>
<path d="M667.737 280.6L654.937 302C645.47 296.4 637.003 291.2 629.537 286.4C617.27 296.8 601.603 302 582.537 302C567.737 302 555.937 298.333 547.137 291C538.47 283.533 534.137 274.267 534.137 263.2C534.137 255.733 536.47 249.067 541.137 243.2C545.937 237.2 552.537 232.333 560.937 228.6C551.337 216.467 546.537 205.2 546.537 194.8C546.537 184.667 550.27 176 557.737 168.8C565.337 161.6 575.67 158 588.737 158C600.737 158 610.203 161.467 617.137 168.4C624.203 175.2 627.737 183.2 627.737 192.4C627.737 201.333 624.803 209.067 618.937 215.6C613.07 222 605.137 227 595.137 230.6C602.87 237.667 612.07 244.867 622.737 252.2C625.67 243.267 625.87 233.667 623.337 223.4H649.137C652.737 239.133 651.337 253.667 644.937 267C654.803 273.267 662.403 277.8 667.737 280.6ZM588.337 181.2C583.937 181.2 580.27 182.733 577.337 185.8C574.537 188.867 573.137 192.8 573.137 197.6C573.137 203.2 576.27 209.867 582.537 217.6C589.07 214 594.003 210.6 597.337 207.4C600.803 204.067 602.537 200 602.537 195.2C602.537 191.067 601.137 187.733 598.337 185.2C595.67 182.533 592.337 181.2 588.337 181.2ZM583.337 278.8C592.803 278.8 601.003 276.4 607.937 271.6C594.337 261.6 583.137 252.267 574.337 243.6C566.07 248.933 561.937 255.067 561.937 262C561.937 266.8 563.87 270.8 567.737 274C571.603 277.2 576.803 278.8 583.337 278.8Z" fill="#00E0FF"/>
<path d="M46.6288 370H42.9888V324.5H46.6288V370ZM53.4803 361.68L57.0553 360.965C57.4453 363.045 58.4419 364.648 60.0453 365.775C61.6919 366.902 63.8369 367.465 66.4803 367.465C69.2103 367.465 71.4419 366.902 73.1753 365.775C74.9519 364.648 75.8403 363.175 75.8403 361.355C75.8403 359.535 75.1036 358.148 73.6303 357.195C72.1569 356.242 70.3803 355.57 68.3003 355.18C66.2203 354.79 64.1186 354.378 61.9953 353.945C59.9153 353.468 58.1386 352.58 56.6653 351.28C55.1919 349.98 54.4553 348.182 54.4553 345.885C54.4553 343.155 55.5603 340.945 57.7703 339.255C60.0236 337.522 62.9269 336.655 66.4803 336.655C69.9036 336.655 72.6769 337.457 74.8003 339.06C76.9669 340.663 78.3103 342.852 78.8303 345.625L75.1903 346.405C74.8003 344.325 73.8469 342.722 72.3303 341.595C70.8569 340.425 68.9069 339.84 66.4803 339.84C64.0103 339.84 61.9736 340.382 60.3703 341.465C58.8103 342.548 58.0303 343.978 58.0303 345.755C58.0303 347.402 58.7669 348.68 60.2403 349.59C61.7136 350.457 63.4903 351.085 65.5703 351.475C67.6936 351.822 69.7953 352.233 71.8753 352.71C73.9986 353.187 75.7969 354.118 77.2703 355.505C78.7436 356.892 79.4803 358.798 79.4803 361.225C79.4803 363.998 78.2453 366.273 75.7753 368.05C73.3486 369.783 70.2503 370.65 66.4803 370.65C62.8836 370.65 59.9369 369.848 57.6403 368.245C55.3436 366.598 53.9569 364.41 53.4803 361.68ZM89.8549 370H86.2799V337.305H89.8549V370ZM103.663 340.62H96.0578V337.305H103.663V324.955L107.238 323.85V337.305H117.638V340.62H107.238V359.275C107.238 361.962 107.801 363.868 108.928 364.995C110.054 366.122 111.939 366.685 114.583 366.685H117.638V370H114.583C110.856 370 108.104 369.133 106.328 367.4C104.551 365.623 103.663 362.893 103.663 359.21V340.62ZM163.086 336.655C166.596 336.655 169.521 338.02 171.861 340.75C174.201 343.48 175.371 346.882 175.371 350.955V370H171.796V351.215C171.796 348.052 170.864 345.408 169.001 343.285C167.138 341.118 164.884 340.035 162.241 340.035C159.294 340.035 156.846 341.097 154.896 343.22C152.989 345.343 152.036 348.008 152.036 351.215V370H148.461V351.215C148.461 348.052 147.529 345.408 145.666 343.285C143.846 341.118 141.593 340.035 138.906 340.035C135.959 340.035 133.533 341.097 131.626 343.22C129.719 345.343 128.766 348.008 128.766 351.215V370H125.191V337.305H128.766V345.17C129.676 342.57 131.106 340.512 133.056 338.995C135.049 337.435 137.303 336.655 139.816 336.655C142.589 336.655 145.016 337.543 147.096 339.32C149.176 341.053 150.606 343.35 151.386 346.21C152.166 343.35 153.618 341.053 155.741 339.32C157.864 337.543 160.313 336.655 163.086 336.655ZM196.843 336.655C200.397 336.655 203.3 337.608 205.553 339.515C207.85 341.378 208.998 343.978 208.998 347.315V370H205.423V360.77C203.083 367.357 198.642 370.65 192.098 370.65C189.065 370.65 186.595 369.87 184.688 368.31C182.825 366.707 181.893 364.562 181.893 361.875C181.893 359.058 182.89 356.87 184.883 355.31C186.92 353.75 189.607 352.775 192.943 352.385L200.938 351.475C203.928 351.128 205.423 349.72 205.423 347.25C205.423 344.953 204.622 343.155 203.018 341.855C201.458 340.555 199.378 339.905 196.778 339.905C194.222 339.905 191.99 340.533 190.083 341.79C188.22 343.003 186.963 344.975 186.313 347.705L182.868 346.665C183.692 343.372 185.382 340.88 187.938 339.19C190.495 337.5 193.463 336.655 196.843 336.655ZM192.683 367.465C196.367 367.465 199.4 366.252 201.783 363.825C204.21 361.398 205.423 358.517 205.423 355.18V351.54C204.86 353.317 203.192 354.335 200.418 354.595L192.943 355.505C190.69 355.765 188.87 356.415 187.483 357.455C186.14 358.452 185.468 359.882 185.468 361.745C185.468 363.478 186.14 364.865 187.483 365.905C188.827 366.945 190.56 367.465 192.683 367.465ZM249.195 368.7L261.545 337.305H265.25L252.185 370H246.01L233.01 337.305H236.91L249.195 368.7ZM283.545 336.655C288.442 336.655 292.494 338.367 295.7 341.79C298.95 345.213 300.467 349.503 300.25 354.66H270.35C270.61 358.3 272.019 361.333 274.575 363.76C277.132 366.187 280.252 367.4 283.935 367.4C286.709 367.4 289.179 366.707 291.345 365.32C293.512 363.89 295.137 361.983 296.22 359.6L299.47 360.77C298.127 363.76 296.069 366.165 293.295 367.985C290.565 369.762 287.424 370.65 283.87 370.65C279.017 370.65 274.965 369.025 271.715 365.775C268.465 362.525 266.84 358.495 266.84 353.685C266.84 348.832 268.422 344.78 271.585 341.53C274.792 338.28 278.779 336.655 283.545 336.655ZM283.545 339.97C280.165 339.97 277.262 341.053 274.835 343.22C272.409 345.387 270.957 348.16 270.48 351.54H296.61C296.177 348.247 294.747 345.495 292.32 343.285C289.894 341.075 286.969 339.97 283.545 339.97ZM326.325 358.43L330.03 357.65C330.42 360.683 331.742 363.045 333.995 364.735C336.292 366.425 339.282 367.27 342.965 367.27C346.475 367.27 349.335 366.447 351.545 364.8C353.755 363.153 354.86 361.052 354.86 358.495C354.86 356.632 354.362 355.05 353.365 353.75C352.369 352.45 351.069 351.453 349.465 350.76C347.862 350.067 346.085 349.46 344.135 348.94C342.229 348.377 340.3 347.813 338.35 347.25C336.4 346.643 334.624 345.928 333.02 345.105C331.417 344.238 330.117 343.025 329.12 341.465C328.124 339.862 327.625 337.933 327.625 335.68C327.625 332.3 329.012 329.483 331.785 327.23C334.559 324.977 338.069 323.85 342.315 323.85C346.562 323.85 350.094 324.998 352.91 327.295C355.727 329.548 357.417 332.473 357.98 336.07L354.275 336.85C353.842 333.99 352.542 331.672 350.375 329.895C348.252 328.075 345.544 327.165 342.25 327.165C339.087 327.165 336.465 327.967 334.385 329.57C332.349 331.13 331.33 333.123 331.33 335.55C331.33 337.327 331.829 338.843 332.825 340.1C333.822 341.313 335.122 342.245 336.725 342.895C338.329 343.545 340.084 344.13 341.99 344.65C343.94 345.127 345.89 345.69 347.84 346.34C349.79 346.947 351.567 347.705 353.17 348.615C354.774 349.482 356.074 350.76 357.07 352.45C358.067 354.097 358.565 356.112 358.565 358.495C358.565 362.048 357.07 364.973 354.08 367.27C351.09 369.523 347.364 370.65 342.9 370.65C338.35 370.65 334.58 369.567 331.59 367.4C328.6 365.19 326.845 362.2 326.325 358.43ZM364.785 353.685C364.785 348.832 366.41 344.78 369.66 341.53C372.91 338.28 376.961 336.655 381.815 336.655C386.668 336.655 390.72 338.28 393.97 341.53C397.263 344.78 398.91 348.832 398.91 353.685C398.91 358.495 397.263 362.525 393.97 365.775C390.72 369.025 386.668 370.65 381.815 370.65C376.961 370.65 372.91 369.025 369.66 365.775C366.41 362.525 364.785 358.495 364.785 353.685ZM372.195 344C369.638 346.6 368.36 349.828 368.36 353.685C368.36 357.542 369.638 360.77 372.195 363.37C374.795 365.97 378.001 367.27 381.815 367.27C385.628 367.27 388.813 365.97 391.37 363.37C393.97 360.77 395.27 357.542 395.27 353.685C395.27 349.828 393.97 346.6 391.37 344C388.813 341.357 385.628 340.035 381.815 340.035C378.001 340.035 374.795 341.357 372.195 344ZM422.201 332.365C419.471 332.365 417.261 331.477 415.571 329.7C413.924 327.88 413.101 325.475 413.101 322.485H416.351C416.351 324.522 416.871 326.168 417.911 327.425C418.994 328.638 420.424 329.245 422.201 329.245C423.978 329.245 425.386 328.638 426.426 327.425C427.466 326.168 427.986 324.522 427.986 322.485H431.236C431.236 325.475 430.391 327.88 428.701 329.7C427.054 331.477 424.888 332.365 422.201 332.365ZM435.006 346.925V337.305H438.581V366.685C438.581 371.495 436.934 375.525 433.641 378.775C430.391 382.025 426.339 383.65 421.486 383.65C417.933 383.65 414.791 382.74 412.061 380.92C409.331 379.143 407.294 376.76 405.951 373.77L409.266 372.405C410.349 374.832 411.953 376.76 414.076 378.19C416.243 379.62 418.713 380.335 421.486 380.335C425.299 380.335 428.506 379.013 431.106 376.37C433.706 373.77 435.006 370.542 435.006 366.685V360.25C433.836 363.37 431.951 365.862 429.351 367.725C426.794 369.588 423.826 370.52 420.446 370.52C415.896 370.52 412.104 368.895 409.071 365.645C406.038 362.395 404.521 358.365 404.521 353.555C404.521 348.745 406.038 344.737 409.071 341.53C412.104 338.28 415.896 336.655 420.446 336.655C423.826 336.655 426.794 337.587 429.351 339.45C431.951 341.313 433.836 343.805 435.006 346.925ZM421.291 367.14C425.234 367.14 428.506 365.862 431.106 363.305C433.706 360.705 435.006 357.455 435.006 353.555C435.006 349.698 433.706 346.492 431.106 343.935C428.506 341.335 425.234 340.035 421.291 340.035C417.608 340.035 414.488 341.335 411.931 343.935C409.374 346.535 408.096 349.742 408.096 353.555C408.096 357.412 409.374 360.64 411.931 363.24C414.488 365.84 417.608 367.14 421.291 367.14ZM447.01 356.74V337.305H450.585V356.74C450.585 359.86 451.581 362.395 453.575 364.345C455.568 366.295 458.06 367.27 461.05 367.27C464.083 367.27 466.596 366.295 468.59 364.345C470.583 362.395 471.58 359.86 471.58 356.74V337.305H475.155V356.74C475.155 360.813 473.811 364.15 471.125 366.75C468.438 369.35 465.08 370.65 461.05 370.65C457.02 370.65 453.661 369.35 450.975 366.75C448.331 364.15 447.01 360.813 447.01 356.74ZM488.077 340.62H480.472V337.305H488.077V324.955L491.652 323.85V337.305H502.052V340.62H491.652V359.275C491.652 361.962 492.215 363.868 493.342 364.995C494.469 366.122 496.354 366.685 498.997 366.685H502.052V370H498.997C495.27 370 492.519 369.133 490.742 367.4C488.965 365.623 488.077 362.893 488.077 359.21V340.62ZM547.5 336.655C551.01 336.655 553.935 338.02 556.275 340.75C558.615 343.48 559.785 346.882 559.785 350.955V370H556.21V351.215C556.21 348.052 555.278 345.408 553.415 343.285C551.552 341.118 549.298 340.035 546.655 340.035C543.708 340.035 541.26 341.097 539.31 343.22C537.403 345.343 536.45 348.008 536.45 351.215V370H532.875V351.215C532.875 348.052 531.943 345.408 530.08 343.285C528.26 341.118 526.007 340.035 523.32 340.035C520.373 340.035 517.947 341.097 516.04 343.22C514.133 345.343 513.18 348.008 513.18 351.215V370H509.605V337.305H513.18V345.17C514.09 342.57 515.52 340.512 517.47 338.995C519.463 337.435 521.717 336.655 524.23 336.655C527.003 336.655 529.43 337.543 531.51 339.32C533.59 341.053 535.02 343.35 535.8 346.21C536.58 343.35 538.032 341.053 540.155 339.32C542.278 337.543 544.727 336.655 547.5 336.655ZM581.257 336.655C584.811 336.655 587.714 337.608 589.967 339.515C592.264 341.378 593.412 343.978 593.412 347.315V370H589.837V360.77C587.497 367.357 583.056 370.65 576.512 370.65C573.479 370.65 571.009 369.87 569.102 368.31C567.239 366.707 566.307 364.562 566.307 361.875C566.307 359.058 567.304 356.87 569.297 355.31C571.334 353.75 574.021 352.775 577.357 352.385L585.352 351.475C588.342 351.128 589.837 349.72 589.837 347.25C589.837 344.953 589.036 343.155 587.432 341.855C585.872 340.555 583.792 339.905 581.192 339.905C578.636 339.905 576.404 340.533 574.497 341.79C572.634 343.003 571.377 344.975 570.727 347.705L567.282 346.665C568.106 343.372 569.796 340.88 572.352 339.19C574.909 337.5 577.877 336.655 581.257 336.655ZM577.097 367.465C580.781 367.465 583.814 366.252 586.197 363.825C588.624 361.398 589.837 358.517 589.837 355.18V351.54C589.274 353.317 587.606 354.335 584.832 354.595L577.357 355.505C575.104 355.765 573.284 356.415 571.897 357.455C570.554 358.452 569.882 359.882 569.882 361.745C569.882 363.478 570.554 364.865 571.897 365.905C573.241 366.945 574.974 367.465 577.097 367.465ZM635.494 343.35L656.619 370H652.069L632.959 345.95L624.964 354.27V370H621.324V324.5H624.964V349.33L648.884 324.5H653.564L635.494 343.35ZM657.919 353.685C657.919 348.832 659.544 344.78 662.794 341.53C666.044 338.28 670.096 336.655 674.949 336.655C679.803 336.655 683.854 338.28 687.104 341.53C690.398 344.78 692.044 348.832 692.044 353.685C692.044 358.495 690.398 362.525 687.104 365.775C683.854 369.025 679.803 370.65 674.949 370.65C670.096 370.65 666.044 369.025 662.794 365.775C659.544 362.525 657.919 358.495 657.919 353.685ZM665.329 344C662.773 346.6 661.494 349.828 661.494 353.685C661.494 357.542 662.773 360.77 665.329 363.37C667.929 365.97 671.136 367.27 674.949 367.27C678.763 367.27 681.948 365.97 684.504 363.37C687.104 360.77 688.404 357.542 688.404 353.685C688.404 349.828 687.104 346.6 684.504 344C681.948 341.357 678.763 340.035 674.949 340.035C671.136 340.035 667.929 341.357 665.329 344ZM715.387 336.655C719.287 336.655 722.515 338.02 725.072 340.75C727.672 343.48 728.972 346.882 728.972 350.955V370H725.397V351.215C725.397 348.052 724.335 345.408 722.212 343.285C720.132 341.118 717.575 340.035 714.542 340.035C711.249 340.035 708.519 341.097 706.352 343.22C704.185 345.343 703.102 348.008 703.102 351.215V370H699.527V337.305H703.102V345.56C704.055 342.873 705.615 340.728 707.782 339.125C709.992 337.478 712.527 336.655 715.387 336.655ZM737.097 356.74V337.305H740.672V356.74C740.672 359.86 741.669 362.395 743.662 364.345C745.656 366.295 748.147 367.27 751.137 367.27C754.171 367.27 756.684 366.295 758.677 364.345C760.671 362.395 761.667 359.86 761.667 356.74V337.305H765.242V356.74C765.242 360.813 763.899 364.15 761.212 366.75C758.526 369.35 755.167 370.65 751.137 370.65C747.107 370.65 743.749 369.35 741.062 366.75C738.419 364.15 737.097 360.813 737.097 356.74ZM771.781 361.68L775.356 360.965C775.746 363.045 776.743 364.648 778.346 365.775C779.993 366.902 782.138 367.465 784.781 367.465C787.511 367.465 789.743 366.902 791.476 365.775C793.253 364.648 794.141 363.175 794.141 361.355C794.141 359.535 793.404 358.148 791.931 357.195C790.458 356.242 788.681 355.57 786.601 355.18C784.521 354.79 782.419 354.378 780.296 353.945C778.216 353.468 776.439 352.58 774.966 351.28C773.493 349.98 772.756 348.182 772.756 345.885C772.756 343.155 773.861 340.945 776.071 339.255C778.324 337.522 781.228 336.655 784.781 336.655C788.204 336.655 790.978 337.457 793.101 339.06C795.268 340.663 796.611 342.852 797.131 345.625L793.491 346.405C793.101 344.325 792.148 342.722 790.631 341.595C789.158 340.425 787.208 339.84 784.781 339.84C782.311 339.84 780.274 340.382 778.671 341.465C777.111 342.548 776.331 343.978 776.331 345.755C776.331 347.402 777.068 348.68 778.541 349.59C780.014 350.457 781.791 351.085 783.871 351.475C785.994 351.822 788.096 352.233 790.176 352.71C792.299 353.187 794.098 354.118 795.571 355.505C797.044 356.892 797.781 358.798 797.781 361.225C797.781 363.998 796.546 366.273 794.076 368.05C791.649 369.783 788.551 370.65 784.781 370.65C781.184 370.65 778.238 369.848 775.941 368.245C773.644 366.598 772.258 364.41 771.781 361.68ZM804.256 356.74V337.305H807.831V356.74C807.831 359.86 808.827 362.395 810.821 364.345C812.814 366.295 815.306 367.27 818.296 367.27C821.329 367.27 823.842 366.295 825.836 364.345C827.829 362.395 828.826 359.86 828.826 356.74V337.305H832.401V356.74C832.401 360.813 831.057 364.15 828.371 366.75C825.684 369.35 822.326 370.65 818.296 370.65C814.266 370.65 810.907 369.35 808.221 366.75C805.577 364.15 804.256 360.813 804.256 356.74ZM856.749 336.655C860.649 336.655 863.878 338.02 866.434 340.75C869.034 343.48 870.334 346.882 870.334 350.955V370H866.759V351.215C866.759 348.052 865.698 345.408 863.574 343.285C861.494 341.118 858.938 340.035 855.904 340.035C852.611 340.035 849.881 341.097 847.714 343.22C845.548 345.343 844.464 348.008 844.464 351.215V370H840.889V337.305H844.464V345.56C845.418 342.873 846.978 340.728 849.144 339.125C851.354 337.478 853.889 336.655 856.749 336.655ZM908.033 346.99V321.9H911.608V370H908.033V360.38C906.863 363.5 904.978 365.992 902.378 367.855C899.822 369.718 896.853 370.65 893.473 370.65C888.923 370.65 885.132 369.025 882.098 365.775C879.065 362.525 877.548 358.495 877.548 353.685C877.548 348.832 879.065 344.78 882.098 341.53C885.132 338.28 888.923 336.655 893.473 336.655C896.853 336.655 899.822 337.608 902.378 339.515C904.978 341.378 906.863 343.87 908.033 346.99ZM894.253 367.27C898.24 367.27 901.533 365.992 904.133 363.435C906.733 360.835 908.033 357.585 908.033 353.685C908.033 349.785 906.733 346.535 904.133 343.935C901.533 341.335 898.24 340.035 894.253 340.035C890.613 340.035 887.515 341.357 884.958 344C882.402 346.6 881.123 349.828 881.123 353.685C881.123 357.542 882.38 360.77 884.893 363.37C887.45 365.97 890.57 367.27 894.253 367.27ZM933.362 336.655C936.915 336.655 939.819 337.608 942.072 339.515C944.369 341.378 945.517 343.978 945.517 347.315V370H941.942V360.77C939.602 367.357 935.16 370.65 928.617 370.65C925.584 370.65 923.114 369.87 921.207 368.31C919.344 366.707 918.412 364.562 918.412 361.875C918.412 359.058 919.409 356.87 921.402 355.31C923.439 353.75 926.125 352.775 929.462 352.385L937.457 351.475C940.447 351.128 941.942 349.72 941.942 347.25C941.942 344.953 941.14 343.155 939.537 341.855C937.977 340.555 935.897 339.905 933.297 339.905C930.74 339.905 928.509 340.533 926.602 341.79C924.739 343.003 923.482 344.975 922.832 347.705L919.387 346.665C920.21 343.372 921.9 340.88 924.457 339.19C927.014 337.5 929.982 336.655 933.362 336.655ZM929.202 367.465C932.885 367.465 935.919 366.252 938.302 363.825C940.729 361.398 941.942 358.517 941.942 355.18V351.54C941.379 353.317 939.71 354.335 936.937 354.595L929.462 355.505C927.209 355.765 925.389 356.415 924.002 357.455C922.659 358.452 921.987 359.882 921.987 361.745C921.987 363.478 922.659 364.865 924.002 365.905C925.345 366.945 927.079 367.465 929.202 367.465ZM972.778 353.49V324.5H976.418V353.49C976.418 357.52 977.762 360.813 980.448 363.37C983.178 365.927 986.667 367.205 990.913 367.205C995.203 367.205 998.692 365.927 1001.38 363.37C1004.06 360.813 1005.41 357.52 1005.41 353.49V324.5H1009.05V353.49C1009.05 358.517 1007.34 362.633 1003.91 365.84C1000.53 369.047 996.2 370.65 990.913 370.65C985.627 370.65 981.272 369.047 977.848 365.84C974.468 362.633 972.778 358.517 972.778 353.49ZM1015.49 337.305H1042.4V343.025L1017.18 366.685H1042.4V370H1015.49V364.345L1040.77 340.62H1015.49V337.305ZM1087.94 336.655C1091.45 336.655 1094.37 338.02 1096.71 340.75C1099.05 343.48 1100.22 346.882 1100.22 350.955V370H1096.65V351.215C1096.65 348.052 1095.72 345.408 1093.85 343.285C1091.99 341.118 1089.74 340.035 1087.09 340.035C1084.15 340.035 1081.7 341.097 1079.75 343.22C1077.84 345.343 1076.89 348.008 1076.89 351.215V370H1073.31V351.215C1073.31 348.052 1072.38 345.408 1070.52 343.285C1068.7 341.118 1066.45 340.035 1063.76 340.035C1060.81 340.035 1058.39 341.097 1056.48 343.22C1054.57 345.343 1053.62 348.008 1053.62 351.215V370H1050.04V337.305H1053.62V345.17C1054.53 342.57 1055.96 340.512 1057.91 338.995C1059.9 337.435 1062.16 336.655 1064.67 336.655C1067.44 336.655 1069.87 337.543 1071.95 339.32C1074.03 341.053 1075.46 343.35 1076.24 346.21C1077.02 343.35 1078.47 341.053 1080.59 339.32C1082.72 337.543 1085.17 336.655 1087.94 336.655ZM1121.7 336.655C1125.25 336.655 1128.15 337.608 1130.41 339.515C1132.7 341.378 1133.85 343.978 1133.85 347.315V370H1130.28V360.77C1127.94 367.357 1123.5 370.65 1116.95 370.65C1113.92 370.65 1111.45 369.87 1109.54 368.31C1107.68 366.707 1106.75 364.562 1106.75 361.875C1106.75 359.058 1107.74 356.87 1109.74 355.31C1111.77 353.75 1114.46 352.775 1117.8 352.385L1125.79 351.475C1128.78 351.128 1130.28 349.72 1130.28 347.25C1130.28 344.953 1129.48 343.155 1127.87 341.855C1126.31 340.555 1124.23 339.905 1121.63 339.905C1119.08 339.905 1116.84 340.533 1114.94 341.79C1113.07 343.003 1111.82 344.975 1111.17 347.705L1107.72 346.665C1108.55 343.372 1110.24 340.88 1112.79 339.19C1115.35 337.5 1118.32 336.655 1121.7 336.655ZM1117.54 367.465C1121.22 367.465 1124.25 366.252 1126.64 363.825C1129.06 361.398 1130.28 358.517 1130.28 355.18V351.54C1129.71 353.317 1128.05 354.335 1125.27 354.595L1117.8 355.505C1115.54 355.765 1113.72 356.415 1112.34 357.455C1110.99 358.452 1110.32 359.882 1110.32 361.745C1110.32 363.478 1110.99 364.865 1112.34 365.905C1113.68 366.945 1115.41 367.465 1117.54 367.465ZM1158.14 336.655C1162.04 336.655 1165.26 338.02 1167.82 340.75C1170.42 343.48 1171.72 346.882 1171.72 350.955V370H1168.15V351.215C1168.15 348.052 1167.08 345.408 1164.96 343.285C1162.88 341.118 1160.32 340.035 1157.29 340.035C1154 340.035 1151.27 341.097 1149.1 343.22C1146.93 345.343 1145.85 348.008 1145.85 351.215V370H1142.28V337.305H1145.85V345.56C1146.8 342.873 1148.36 340.728 1150.53 339.125C1152.74 337.478 1155.28 336.655 1158.14 336.655ZM1226.89 370H1199.72V324.5H1226.89V327.88H1203.36V345.56H1226.24V348.94H1203.36V366.62H1226.89V370ZM1238.08 370H1234.51V321.9H1238.08V370ZM1250.46 370H1246.89V321.9H1250.46V370ZM1274.67 336.655C1279.56 336.655 1283.62 338.367 1286.82 341.79C1290.07 345.213 1291.59 349.503 1291.37 354.66H1261.47C1261.73 358.3 1263.14 361.333 1265.7 363.76C1268.25 366.187 1271.37 367.4 1275.06 367.4C1277.83 367.4 1280.3 366.707 1282.47 365.32C1284.63 363.89 1286.26 361.983 1287.34 359.6L1290.59 360.77C1289.25 363.76 1287.19 366.165 1284.42 367.985C1281.69 369.762 1278.55 370.65 1274.99 370.65C1270.14 370.65 1266.09 369.025 1262.84 365.775C1259.59 362.525 1257.96 358.495 1257.96 353.685C1257.96 348.832 1259.54 344.78 1262.71 341.53C1265.91 338.28 1269.9 336.655 1274.67 336.655ZM1274.67 339.97C1271.29 339.97 1268.38 341.053 1265.96 343.22C1263.53 345.387 1262.08 348.16 1261.6 351.54H1287.73C1287.3 348.247 1285.87 345.495 1283.44 343.285C1281.02 341.075 1278.09 339.97 1274.67 339.97ZM1302.51 337.305V345.625C1304.98 338.908 1309.53 335.983 1316.16 336.85V340.36C1312.39 339.71 1309.16 340.447 1306.48 342.57C1303.83 344.693 1302.51 347.575 1302.51 351.215V370H1298.94V337.305H1302.51Z" fill="white"/>
<line x1="715" y1="320" x2="763" y2="320" stroke="white" stroke-width="6"/>
</svg>
