<?xml version="1.0" encoding="UTF-8"?>
<svg xmlns="http://www.w3.org/2000/svg" width="99" height="100" viewBox="0 0 99 100" fill="none">
  <path d="M80.6328 69.0854C80.2919 68.3607 79.426 68.0434 78.7003 68.3849C78.5727 68.445 78.4579 68.521 78.3571 68.6096L70.6294 72.4423C70.2345 72.6382 69.8151 72.7623 69.3826 72.8118C62.7568 73.5696 29.7046 78.3473 29.7046 98.0472C29.7046 98.8482 30.3539 99.4973 31.1548 99.4973C31.9557 99.4973 32.605 98.8482 32.605 98.0472C32.605 90.8577 38.0227 85.0483 48.7076 80.7803C57.4459 77.2898 66.9939 76.0043 69.7117 75.6932C70.479 75.6058 71.2212 75.3862 71.9179 75.0405L79.9823 71.0407C80.6894 70.6901 80.9918 69.85 80.6556 69.1357L80.6328 69.0854Z" fill="#4C4C4C"></path>
  <path d="M5.20246 86.3203C4.43618 86.0867 3.62581 86.5181 3.39224 87.2842L0.236621 97.6264C0.00285062 98.3925 0.434427 99.2028 1.20032 99.4366C1.34147 99.4797 1.48378 99.5 1.62397 99.5C2.24523 99.5 2.81989 99.0976 3.01055 98.4727L6.16616 88.1305C6.40012 87.3644 5.96855 86.5541 5.20246 86.3203Z" fill="#4C4C4C"></path>
  <path d="M98.3019 48.6502C97.6748 47.4556 96.5593 46.6031 95.2422 46.3117C93.9981 46.0362 92.742 46.0236 91.5415 46.2473L92.1767 43.5807C92.4808 42.304 92.2084 40.9661 91.4293 39.91C90.6503 38.8537 89.4521 38.1986 88.1424 38.1126C86.7157 38.0178 85.2866 38.2785 83.9868 38.8433C83.9914 38.5992 83.9938 38.3546 83.9938 38.1101C83.9938 32.0666 82.6024 26.2926 79.8582 20.9484C79.4922 20.2357 78.6174 19.9549 77.9057 20.3207C77.1932 20.6866 76.9122 21.5607 77.278 22.2733C79.8097 27.2037 81.0932 32.5321 81.0932 38.1101C81.0932 45.1576 78.9999 51.921 75.0374 57.7003L71.899 58.909V52.1188H73.3589C74.1074 52.1188 74.8269 51.8017 75.3323 51.2491C75.8381 50.6963 76.0901 49.9513 76.0235 49.2061L75.1689 39.6022C74.897 36.5377 72.8703 34.0602 70.1205 33.1123C71.377 31.7461 72.1456 29.9244 72.1456 27.9265C72.1456 23.6975 68.7049 20.2569 64.476 20.2569C63.9087 20.2569 63.3563 20.3207 62.8238 20.4381C62.5316 19.6043 61.9283 18.9017 61.1085 18.4867L57.8711 16.8484C56.8277 16.3207 55.557 16.442 54.6331 17.1578L49.246 21.3293C48.4961 21.9101 48.0661 22.7872 48.0661 23.7356V25.2864C48.0661 25.3507 48.0228 25.4076 47.9607 25.4246L45.7619 26.0283C45.7064 26.0428 45.6486 26.0244 45.6128 25.9809L43.6958 23.6324C43.6717 23.603 43.6604 23.5657 43.6641 23.5278L44.5534 14.3346C44.6553 13.2792 44.1899 12.2306 43.3387 11.5986L39.0388 8.40447C38.1091 7.7138 36.8892 7.60822 35.8546 8.12932L31.0986 10.525C29.927 11.1154 29.2669 12.384 29.456 13.6822L29.8562 16.4288C29.6604 16.4137 29.4631 16.4037 29.2634 16.4037C25.0343 16.4037 21.5939 19.8443 21.5939 24.0732C21.5939 26.0712 22.3625 27.8926 23.6187 29.2589C20.8692 30.2071 18.8424 32.685 18.5707 35.7499L18.2677 39.1544L16.2001 38.9444C15.633 38.8864 15.0638 38.9885 14.5529 39.2389L11.763 40.6055C11.704 39.7781 11.6738 38.9457 11.6738 38.1099C11.674 18.9709 27.2446 3.40037 46.3835 3.40037C57.1216 3.40037 67.084 8.25327 73.7158 16.7144C74.21 17.345 75.1217 17.4548 75.7519 16.9611C76.3822 16.4669 76.4926 15.5554 75.9986 14.9251C68.8132 5.75779 58.019 0.5 46.3835 0.5C25.6453 0.5 8.77365 17.3718 8.77365 38.1101C8.77365 46.9682 11.8606 55.4457 17.5028 62.1999C12.6698 64.6664 8.95715 69.0456 7.35402 74.2999L5.39897 80.7076C5.1652 81.4737 5.59678 82.284 6.36286 82.5178C6.50382 82.5609 6.64633 82.5812 6.78651 82.5812C7.40777 82.5812 7.98243 82.1788 8.17308 81.5539L10.1281 75.1462C11.6721 70.0864 15.4988 65.9745 20.4047 64.0745C20.4086 64.073 20.4124 64.0716 20.4163 64.0701C20.5323 64.0252 20.6483 63.9804 20.7657 63.938C28.925 60.9909 40.4461 55.5718 48.995 46.4927C51.5729 43.7551 55.7038 43.2601 58.8176 45.3165C59.1734 45.5514 59.4038 45.9128 59.4667 46.334C59.5295 46.7553 59.4145 47.1681 59.1428 47.497C56.6524 50.5085 52.7819 54.9347 48.4853 58.9183C48.4784 58.9246 48.4722 58.9318 48.4652 58.9384C48.4611 58.9422 48.4567 58.9455 48.4528 58.9494C45.8332 61.5338 43.173 64.225 41.4608 66.3995C40.9654 67.0287 41.0739 67.9405 41.7031 68.4359C41.969 68.6453 42.2851 68.7466 42.5993 68.7466C43.0286 68.7466 43.4534 68.5572 43.7395 68.1936C44.7427 66.9198 46.1631 65.3869 47.6767 63.8344C48.4764 65.3192 50.0436 66.1328 51.7442 65.9149L66.5786 64.0212C66.694 64.0065 66.8075 63.9779 66.916 63.9361L83.6585 57.4878C83.9261 57.3847 84.1571 57.2045 84.3225 56.9702L88.0498 51.6847C89.5302 49.5858 92.1069 48.587 94.6153 49.1432C95.1041 49.2513 95.5015 49.5549 95.7341 49.9981C95.9667 50.4415 95.991 50.9409 95.8025 51.4044L91.9833 60.8014C91.6384 61.6506 90.9958 62.3426 90.1746 62.75L84.825 65.4033C84.1075 65.7591 83.8141 66.6292 84.1701 67.3467C84.5261 68.0645 85.3964 68.3576 86.1135 68.0016L91.4634 65.3484C92.9195 64.626 94.0586 63.3989 94.6704 61.8935L98.4896 52.4967C98.9976 51.247 98.9291 49.8449 98.3019 48.6502ZM69.2454 27.9265C69.2454 30.5563 67.1061 32.6956 64.4762 32.6956C61.8463 32.6956 59.707 30.5563 59.707 27.9265C59.707 25.2966 61.8463 23.1573 64.4762 23.1573C67.1061 23.1573 69.2454 25.2966 69.2454 27.9265ZM29.2634 19.3041C31.8933 19.3041 34.0326 21.4434 34.0326 24.0732C34.0326 26.7031 31.8933 28.8424 29.2634 28.8424C26.6335 28.8424 24.4942 26.7031 24.4942 24.0732C24.4942 21.4434 26.6337 19.3041 29.2634 19.3041ZM21.4599 36.0067C21.6753 33.576 23.6786 31.7428 26.1198 31.7428H32.4078C34.8474 31.7428 36.8508 33.5762 37.0675 36.0073L37.9005 45.365H35.2366C34.4357 45.365 33.7864 46.0141 33.7864 46.8152V54.7114C32.7593 55.3129 31.7326 55.8812 30.7138 56.4162V46.7C30.7138 45.8989 30.0645 45.2498 29.2636 45.2498C28.4627 45.2498 27.8134 45.8989 27.8134 46.7V57.8662C26.7683 58.3631 25.7408 58.8249 24.7382 59.2545C24.7398 59.2441 24.7411 59.234 24.7411 59.2267V46.815C24.7411 46.0139 24.0919 45.3648 23.291 45.3648H20.6271L21.4599 36.0067ZM15.8295 41.8436C15.8533 41.832 15.8797 41.827 15.9064 41.8301L18.0106 42.0439L17.7161 45.3523C17.6497 46.0984 17.9015 46.8434 18.4071 47.3961C18.9126 47.9483 19.6319 48.2652 20.3807 48.2652H21.8406V59.2265C21.8406 59.6188 21.9007 60.0036 22.0134 60.3706C21.4311 60.5982 20.8626 60.8128 20.3078 61.017C15.9664 56.0805 13.1513 50.0779 12.1182 43.6612L15.8295 41.8436ZM46.8831 44.5044C43.7931 47.7861 40.2827 50.5704 36.6868 52.9188V48.2652H38.1467C38.8953 48.2652 39.6146 47.9483 40.1201 47.3961C40.6257 46.8436 40.8774 46.0986 40.8111 45.3523L39.9565 35.7497C39.6831 32.685 37.6563 30.2075 34.9081 29.2591C36.1645 27.8926 36.9331 26.0712 36.9331 24.0732C36.9331 21.1067 35.2391 18.5302 32.7688 17.255C32.8154 16.9559 32.8196 16.6502 32.7759 16.3497L32.3264 13.2641C32.3175 13.203 32.3486 13.1431 32.4037 13.1153L37.1594 10.7197C37.2081 10.695 37.2659 10.7004 37.3096 10.7325L41.6095 13.9266C41.6497 13.9564 41.6716 14.0059 41.6667 14.0556L40.7777 23.2484C40.6998 24.0523 40.9384 24.8401 41.4492 25.4662L43.3664 27.8149C43.9528 28.5334 44.8249 28.9337 45.7253 28.9337C45.9931 28.9337 46.2638 28.8981 46.5299 28.825L48.7289 28.2213C50.0465 27.8596 50.9669 26.6526 50.9669 25.2862V23.7354C50.9669 23.6908 50.9872 23.6494 51.0224 23.6219L56.4091 19.4506C56.4528 19.417 56.5128 19.4114 56.5617 19.4363L59.7993 21.0746C59.9975 21.175 60.1208 21.3755 60.1208 21.5977C60.1208 21.6044 60.1218 21.6108 60.1218 21.6176C58.1207 23.003 56.8067 25.3136 56.8067 27.9261C56.8067 29.924 57.5755 31.7457 58.8317 33.1119C56.082 34.0598 54.0552 36.5371 53.7833 39.601L53.6408 41.1974C51.1409 41.4296 48.7235 42.5499 46.8831 44.5044ZM51.3768 63.0383C50.6051 63.1366 50.2748 62.566 50.1919 62.3887C50.1095 62.2121 49.8887 61.603 50.4299 61.0732C50.4454 61.0582 50.4608 61.0425 50.4763 61.0274C52.8506 58.8245 55.0912 56.4974 57.053 54.337V62.3138L51.3768 63.0383ZM66.0372 61.1666L65.9264 61.1807V50.5532C65.9264 49.7521 65.2773 49.103 64.4762 49.103C63.6751 49.103 63.026 49.7521 63.026 50.5532V61.551L59.9534 61.9433V51.0405C60.4652 50.4403 60.9436 49.8703 61.3778 49.3451C62.1694 48.3878 62.5183 47.1341 62.3352 45.9059C62.1519 44.6776 61.4523 43.5807 60.4155 42.8962C59.2082 42.099 57.8906 41.5793 56.541 41.3279L56.6721 39.8586C56.8875 37.4288 58.8911 35.5964 61.332 35.5964H67.62C70.061 35.5964 72.0643 37.4288 72.2799 39.859L73.1129 49.2185H70.449C69.6479 49.2185 68.9988 49.8676 68.9988 50.6686V60.026L66.0372 61.1666ZM85.6796 50.0135L82.2056 54.9395L79.4812 55.9889C81.7769 51.7545 83.2234 47.1372 83.7586 42.3361C84.9433 41.377 86.4219 40.907 87.952 41.0067C88.4143 41.0371 88.8202 41.2593 89.0953 41.6321C89.3703 42.0049 89.4625 42.4581 89.3552 42.9088L88.295 47.3601C88.2819 47.4148 88.2853 47.4684 88.3002 47.5208C87.2919 48.1583 86.397 48.9965 85.6796 50.0135Z" fill="#4C4C4C"></path>
</svg>
