<?xml version="1.0" encoding="UTF-8"?>
<svg xmlns="http://www.w3.org/2000/svg" width="86" height="121" viewBox="0 0 86 121" fill="none">
  <path d="M85.1102 65.8103C85.1102 59.2876 82.7831 51.661 78.1945 43.134C78.5566 41.7474 78.7507 40.2938 78.7507 38.7952C78.7507 35.856 77.3015 32.1306 74.3201 27.4063C73.8004 26.5834 72.7125 26.3373 71.8894 26.8564C71.0662 27.3758 70.8204 28.4642 71.3395 29.2871C74.5521 34.3775 75.2264 37.2674 75.2264 38.795C75.2264 46.3234 69.1015 52.4481 61.5731 52.4481C54.0447 52.4481 47.9201 46.3234 47.9201 38.795C47.9201 32.9748 56.8293 21.9245 61.5679 16.6862C62.7626 18.013 64.6619 20.188 66.6672 22.7413C67.2687 23.5067 68.3763 23.6399 69.1415 23.0387C69.9068 22.4375 70.0401 21.3299 69.439 20.5644C66.022 16.2137 62.9773 13.0067 62.8493 12.8724C62.5167 12.523 62.0555 12.3252 61.5731 12.3252C61.0908 12.3252 60.6295 12.523 60.2967 12.8724C60.2222 12.9507 59.3585 13.8608 58.0673 15.3273C50.5455 6.82438 44.2589 1.0257 44.1926 0.964766C43.5185 0.344844 42.4816 0.345312 41.8075 0.964766C41.6297 1.12836 23.8734 17.5414 11.9364 36.1468C11.411 36.966 11.6489 38.056 12.468 38.5815C12.7626 38.7706 13.0922 38.8606 13.4179 38.8606C13.998 38.8606 14.5661 38.5742 14.9027 38.0497C24.8144 22.6009 38.8589 8.66094 43.0008 4.68664C45.1903 6.78453 50.1422 11.6588 55.754 18.0317C54.7207 19.2753 53.5926 20.6825 52.4583 22.1872C47.1084 29.2845 44.3958 34.872 44.3958 38.7948C44.3958 48.2663 52.1015 55.9721 61.5731 55.9721C67.9104 55.9721 73.4531 52.52 76.4301 47.3999C79.8527 54.3439 81.5857 60.5251 81.5857 65.8098C81.5857 74.6479 78.6494 83.004 73.2335 89.7964C72.8308 73.4682 59.4234 60.3092 43.0001 60.3092C26.5765 60.3092 13.1688 73.4687 12.7666 89.7971C7.34996 83.0033 4.41371 74.6467 4.41371 65.8093C4.41371 59.9286 6.56246 52.9295 10.8007 45.006C11.2598 44.1479 10.9361 43.0801 10.0779 42.6212C9.21981 42.1618 8.15199 42.4855 7.69309 43.344C3.17856 51.7841 0.889648 59.3429 0.889648 65.8096C0.889648 77.0539 5.24809 87.5832 13.1709 95.5302C14.0871 101.026 16.5075 106.193 20.2125 110.436C24.9738 115.888 31.5211 119.455 38.6491 120.482C39.6131 120.621 40.5061 119.952 40.6446 118.989C40.7831 118.025 40.1149 117.132 39.1516 116.993C37.7627 116.793 36.4008 116.478 35.073 116.065V110.117C35.073 109.576 34.9783 109.045 34.7915 108.539L33.415 104.803C33.0771 103.885 32.4396 103.086 31.62 102.554L27.7933 100.066C27.6138 99.9496 27.4767 99.7829 27.3963 99.5849L25.0322 93.7433C24.9508 93.5429 24.9344 93.3257 24.9836 93.1157L25.5979 90.5085C25.7086 90.0383 26.0672 89.8459 26.216 89.7847C26.3648 89.7236 26.7557 89.6101 27.1643 89.8677L27.9211 90.3454C28.6736 90.8207 29.5443 91.0644 30.4338 91.0496L38.8561 90.9088C40.2844 90.8849 41.6376 90.1801 42.4755 89.023L46.1001 84.0196C47.464 82.1371 47.1965 79.5362 45.4788 77.9701L41.2931 74.154C41.0775 73.9571 40.9537 73.6773 40.9537 73.3855V68.5944C40.9537 68.3872 41.0149 68.1868 41.1307 68.0146L43.9279 63.8511C51.4788 64.1101 58.2433 67.5165 62.9486 72.7975L64.5133 80.1233C64.8947 81.9078 64.5354 83.8042 63.5278 85.3253L61.1735 88.8803C61.0783 89.0239 60.9426 89.1315 60.7812 89.1913L56.1604 90.9036C54.4699 91.5301 53.3341 93.1621 53.3341 94.9649V98.3999C53.3341 99.5507 53.7808 100.635 54.5925 101.452L56.3906 103.262C56.4719 103.344 56.5357 103.445 56.5753 103.553L56.7272 103.968C56.8591 104.328 56.7173 104.734 56.3901 104.934L54.3949 106.153C54.1912 106.277 53.9444 106.305 53.719 106.23C51.5967 105.522 49.3076 106.53 48.3944 108.572L48.0874 109.26C47.4487 110.689 47.6329 112.357 48.5679 113.613L50.493 116.199C49.3033 116.546 48.0869 116.814 46.8497 116.992C45.8864 117.131 45.2182 118.024 45.3567 118.988C45.4833 119.866 46.2368 120.499 47.0986 120.499C47.1822 120.499 47.2671 120.493 47.3522 120.481C54.4802 119.454 61.0277 115.887 65.7888 110.435C69.4943 106.192 71.9149 101.024 72.8308 95.5276C80.7522 87.5839 85.1102 77.0553 85.1102 65.8103ZM43.1041 80.5752C43.4953 80.9317 43.5562 81.5239 43.2454 81.9529L39.6208 86.9563C39.43 87.2197 39.1221 87.38 38.797 87.3857L30.3752 87.5265C30.1732 87.5204 29.974 87.4745 29.8024 87.3662L29.0451 86.8883C27.8006 86.1027 26.2439 85.966 24.8817 86.5232C23.5195 87.0805 22.5047 88.2683 22.1674 89.701L21.5531 92.3082C21.3356 93.2324 21.4087 94.1863 21.7652 95.0661L24.1293 100.908C24.4821 101.779 25.0847 102.51 25.8724 103.022L29.699 105.509C29.8858 105.63 30.0309 105.812 30.108 106.021L31.4847 109.758C31.5272 109.873 31.5487 109.994 31.5487 110.117V114.691C28.2654 113.131 25.3015 110.905 22.8672 108.118C18.6204 103.255 16.2818 97.0173 16.2818 90.553C16.2818 76.9914 26.4379 65.7578 39.5437 64.0574L38.205 66.0498C37.6976 66.8054 37.4292 67.6855 37.4292 68.5951V73.3862C37.4292 74.6664 37.9718 75.8954 38.9184 76.7586L43.1041 80.5752ZM63.1333 108.118C60.573 111.05 57.4265 113.36 53.9386 114.928L51.394 111.51C51.2198 111.276 51.1854 110.965 51.3047 110.698L51.6117 110.011C51.7816 109.63 52.2082 109.443 52.6036 109.575C53.8172 109.979 55.1395 109.829 56.2317 109.161L58.2269 107.942C59.9824 106.869 60.7432 104.689 60.0358 102.757L59.884 102.342C59.6707 101.759 59.3266 101.219 58.8897 100.779L57.0923 98.9694C56.9409 98.8168 56.8577 98.6148 56.8577 98.4006V94.9656C56.8577 94.63 57.0694 94.326 57.3844 94.209L62.0051 92.4967C62.8722 92.1754 63.6002 91.5981 64.1112 90.827L66.4654 87.272C67.5766 85.5943 68.1644 83.616 68.1815 81.6212C69.1755 84.4154 69.7188 87.4218 69.7188 90.5528C69.7188 97.0175 67.3802 103.255 63.1333 108.118Z" fill="#4C4C4C"></path>
</svg>
