<?xml version="1.0" encoding="UTF-8"?>
<svg xmlns="http://www.w3.org/2000/svg" width="120" height="121" viewBox="0 0 120 121" fill="none">
  <path d="M55.5696 87.607L50.5128 83.1054C49.7187 82.3976 49.2633 81.3834 49.2633 80.3231V73.7583C49.2633 72.6732 49.736 71.6441 50.5594 70.9356L60.6435 62.2647C62.9193 62.29 65.1918 62.448 67.415 62.7419C74.3979 63.655 81.0651 65.8426 87.2315 69.2436C91.5128 71.6047 95.4784 74.5177 99.0178 77.9021C99.7196 78.5731 100.832 78.548 101.503 77.8465C102.174 77.1448 102.149 76.032 101.447 75.3612C98.1242 72.1838 94.4469 69.3981 90.497 67.0621C93.3814 61.8869 94.9027 56.0562 94.9027 50.082C94.9027 30.8367 79.2455 15.1792 59.9999 15.1792C53.7216 15.1792 47.5646 16.8657 42.1944 20.0572C41.3598 20.5529 41.0853 21.6317 41.581 22.4661C42.077 23.3005 43.1556 23.5751 43.9902 23.0792C48.8173 20.2109 54.3534 18.6948 59.9999 18.6948C77.307 18.6948 91.3871 32.775 91.3871 50.082C91.3871 55.4602 90.017 60.708 87.4194 65.3636C82.3261 62.7395 76.9275 60.8803 71.3143 59.8122L78.1216 53.0016C80.4968 50.629 81.8048 47.4744 81.8048 44.1186C81.8048 40.7891 80.5172 37.6577 78.1777 35.2917C78.1596 35.272 78.1413 35.2528 78.1223 35.2338C75.75 32.8615 72.5954 31.5551 69.2401 31.5551C65.8846 31.5551 62.7301 32.8615 60.3585 35.2331L59.879 35.7121L59.4006 35.2338C54.5032 30.3363 46.534 30.3363 41.6361 35.2338C41.6174 35.2528 41.5989 35.2717 41.581 35.2914C39.2411 37.6574 37.9537 40.7889 37.9537 44.1186C37.9537 47.4744 39.2617 50.629 41.6356 53.0004L48.4829 59.8511C42.9444 60.925 37.6143 62.7714 32.5804 65.3638C29.9829 60.7082 28.6127 55.4604 28.6127 50.082C28.6127 41.6699 31.8972 33.7682 37.8613 27.8318C38.5494 27.147 38.552 26.0339 37.8672 25.3461C37.1821 24.6577 36.0691 24.6551 35.3812 25.3404C28.7494 31.9411 25.0971 40.7279 25.0971 50.082C25.0971 56.0564 26.6184 61.8871 29.5031 67.0623C11.2593 77.8458 0.000488281 97.4811 0.000488281 118.742C0.000488281 119.713 0.787512 120.499 1.75828 120.499C2.72906 120.499 3.51608 119.713 3.51608 118.742C3.51608 98.1587 14.725 79.1923 32.7684 69.2441C38.8773 65.8764 45.4749 63.6979 52.3805 62.7691C53.2477 62.6512 54.123 62.5549 55.0036 62.478L48.2668 68.2707C46.6658 69.6484 45.7477 71.6485 45.7477 73.7586V80.3234C45.7477 82.3851 46.6318 84.3557 48.1742 85.7306L53.2336 90.2345C54.026 90.9381 54.4805 91.9504 54.4805 93.0123V99.5537C54.4805 100.576 54.0525 101.565 53.3074 102.266L52.7637 102.777C52.0561 103.442 52.0214 104.554 52.6861 105.262C53.032 105.63 53.4991 105.816 53.9676 105.816C54.3991 105.816 54.8315 105.658 55.1709 105.34L55.7154 104.828C57.165 103.465 57.9963 101.542 57.9963 99.5537V93.0123C57.996 90.9461 57.1111 88.9755 55.5696 87.607ZM41.4692 44.1186C41.4692 41.7022 42.4112 39.4309 44.1212 37.7228C44.1378 37.7062 44.154 37.6891 44.1699 37.672C45.8726 35.9939 48.1245 35.0704 50.5184 35.0704C52.9348 35.0704 55.2063 36.0114 56.9149 37.7198L58.6352 39.4401C59.3212 40.1258 60.4335 40.1265 61.1202 39.4408L62.8438 37.7198C64.5522 36.0114 66.8237 35.0704 69.2403 35.0704C71.6342 35.0704 73.8858 35.9936 75.5885 37.672C75.6045 37.6891 75.6206 37.7062 75.6373 37.7228C77.3475 39.4309 78.2892 41.7022 78.2892 44.1186C78.2892 46.5348 77.3473 48.8061 75.6361 50.5154L67.0063 59.1497C62.32 58.6024 57.4514 58.6115 52.7775 59.175L44.1214 50.5142C42.4112 48.8061 41.4692 46.5345 41.4692 44.1186Z" fill="#4C4C4C"></path>
  <path d="M46.7888 108.392L46.316 108.837C45.2756 109.814 43.7975 110.111 42.4601 109.61L37.0611 107.587C35.9896 107.187 35.1742 106.333 34.8236 105.245L34.1997 103.308C33.2305 100.307 30.4619 98.291 27.3098 98.291H23.37C20.4474 98.291 17.8271 100.032 16.6939 102.727L13.5062 110.318C12.9788 111.575 12.8162 112.949 13.0363 114.293L13.8144 119.027C13.9559 119.889 14.7015 120.5 15.5469 120.5C15.6416 120.5 15.7376 120.493 15.8342 120.477C16.7921 120.319 17.4411 119.415 17.2838 118.457L16.5059 113.724C16.3929 113.033 16.4766 112.326 16.748 111.679L19.9353 104.089C20.5181 102.702 21.8665 101.807 23.3702 101.807H27.31C28.9314 101.807 30.3557 102.844 30.854 104.387L31.4774 106.323C32.1594 108.44 33.7459 110.102 35.829 110.88L41.2276 112.903C43.8286 113.876 46.7011 113.3 48.7244 111.398L49.1979 110.953C49.905 110.287 49.939 109.175 49.2736 108.468C48.6087 107.761 47.4961 107.727 46.7888 108.392Z" fill="#4C4C4C"></path>
  <path d="M107.125 81.6021C106.523 80.8402 105.418 80.7101 104.656 81.3117C103.894 81.9131 103.764 83.0184 104.365 83.7806C107.527 87.7856 110.092 92.1166 112.036 96.6894L109.522 99.7782C107.894 101.777 105.604 103.149 103.072 103.641L94.4479 105.319C92.8391 105.632 91.3047 106.21 89.886 107.037L81.5105 111.932C79.0615 113.362 77.6754 116.107 77.9796 118.926C78.0769 119.828 78.8389 120.496 79.725 120.496C79.7881 120.496 79.8518 120.492 79.9156 120.486C80.8807 120.381 81.5789 119.514 81.4746 118.549C81.319 117.106 82.0287 115.701 83.2835 114.968L91.6581 110.073C92.7334 109.446 93.8978 109.008 95.1189 108.77L103.744 107.092C107.081 106.443 110.101 104.633 112.248 101.998L113.485 100.478C115.465 106.281 116.484 112.42 116.484 118.738C116.484 119.709 117.271 120.496 118.242 120.496C119.212 120.496 119.999 119.709 119.999 118.738C119.999 105.113 115.547 92.2717 107.125 81.6021Z" fill="#4C4C4C"></path>
  <path d="M71.7091 81.4161H69.4685C68.4977 81.4161 67.7107 82.2029 67.7107 83.1739C67.7107 84.1449 68.4977 84.9317 69.4685 84.9317H71.7091C72.6799 84.9317 73.4669 84.1449 73.4669 83.1739C73.4669 82.2029 72.6799 81.4161 71.7091 81.4161Z" fill="#4C4C4C"></path>
  <path d="M68.1515 109.949H65.9109C64.9401 109.949 64.1531 110.736 64.1531 111.707C64.1531 112.678 64.9401 113.465 65.9109 113.465H68.1515C69.1222 113.465 69.9093 112.678 69.9093 111.707C69.9093 110.736 69.1222 109.949 68.1515 109.949Z" fill="#4C4C4C"></path>
  <path d="M90.0139 93.5664C89.0431 93.5664 88.2561 94.3532 88.2561 95.3242C88.2561 96.2952 89.0431 97.082 90.0139 97.082H92.2545C93.2253 97.082 94.0123 96.2952 94.0123 95.3242C94.0123 94.3532 93.2253 93.5664 92.2545 93.5664H90.0139Z" fill="#4C4C4C"></path>
  <path d="M59.9999 12.5393C60.9706 12.5393 61.7577 11.7525 61.7577 10.7815V2.25737C61.7577 1.28636 60.9706 0.499573 59.9999 0.499573C59.0291 0.499573 58.2421 1.28636 58.2421 2.25737V10.7815C58.2421 11.7525 59.0291 12.5393 59.9999 12.5393Z" fill="#4C4C4C"></path>
  <path d="M48.1304 12.5743C48.3411 13.3594 49.051 13.8771 49.827 13.8771C49.9777 13.8771 50.131 13.8575 50.2836 13.8167C51.2213 13.5652 51.7775 12.601 51.526 11.6633L50.4221 7.54744C50.1706 6.61018 49.2062 6.05519 48.2689 6.30503C47.3312 6.55651 46.775 7.52072 47.0265 8.45845L48.1304 12.5743Z" fill="#4C4C4C"></path>
  <path d="M38.8281 16.922C39.1539 17.4859 39.7445 17.8009 40.3518 17.8009C40.6501 17.8009 40.9525 17.7249 41.2295 17.5648C42.0702 17.0795 42.358 16.0041 41.8724 15.1637L37.6091 7.78329C37.1238 6.94236 36.0482 6.65455 35.2078 7.1404C34.3671 7.62579 34.0792 8.70109 34.5649 9.54155L38.8281 16.922Z" fill="#4C4C4C"></path>
  <path d="M30.9675 23.533C31.3106 23.8761 31.7606 24.0477 32.2104 24.0477C32.6601 24.0477 33.1101 23.8761 33.4533 23.533C34.1397 22.8463 34.1397 21.7335 33.4533 21.047L30.4392 18.033C29.7527 17.3467 28.6397 17.3467 27.9535 18.033C27.267 18.7197 27.267 19.8325 27.9535 20.519L30.9675 23.533Z" fill="#4C4C4C"></path>
  <path d="M17.7052 27.6906L25.0856 31.9515C25.3624 32.1113 25.6647 32.1872 25.9628 32.1872C26.5703 32.1872 27.1612 31.872 27.4867 31.3081C27.9721 30.4674 27.6841 29.3923 26.8434 28.907L19.463 24.6461C18.6223 24.1607 17.547 24.4485 17.0618 25.2894C16.5765 26.1301 16.8645 27.2052 17.7052 27.6906Z" fill="#4C4C4C"></path>
  <path d="M92.5134 31.308C92.8389 31.8719 93.4298 32.1871 94.0372 32.1871C94.3354 32.1871 94.6377 32.1112 94.9145 31.9514L102.295 27.6905C103.136 27.2053 103.424 26.1302 102.938 25.2893C102.453 24.4484 101.378 24.1608 100.537 24.646L93.1567 28.9068C92.316 29.392 92.0277 30.4671 92.5134 31.308Z" fill="#4C4C4C"></path>
  <path d="M17.4664 40.5036L21.5843 41.6052C21.7364 41.646 21.8892 41.6654 22.0397 41.6654C22.8159 41.6654 23.5265 41.147 23.7365 40.3616C23.9873 39.4236 23.4304 38.4601 22.4927 38.2091L18.3748 37.1076C17.4378 36.8577 16.4733 37.4137 16.2225 38.3514C15.9715 39.2894 16.5286 40.2529 17.4664 40.5036Z" fill="#4C4C4C"></path>
  <path d="M12.1763 51.8412H20.698C21.6688 51.8412 22.4558 51.0544 22.4558 50.0834C22.4558 49.1124 21.6688 48.3256 20.698 48.3256H12.1763C11.2055 48.3256 10.4185 49.1124 10.4185 50.0834C10.4185 51.0544 11.2055 51.8412 12.1763 51.8412Z" fill="#4C4C4C"></path>
  <path d="M21.5834 58.5544L17.4654 59.6583C16.5277 59.9095 15.9713 60.8737 16.2228 61.8115C16.4332 62.5968 17.1434 63.1146 17.9194 63.1146C18.0701 63.1146 18.2232 63.0951 18.3757 63.0541L22.4937 61.9502C23.4314 61.699 23.9878 60.7348 23.7363 59.797C23.4851 58.8591 22.5208 58.3031 21.5834 58.5544Z" fill="#4C4C4C"></path>
  <path d="M69.7164 13.8172C69.869 13.8582 70.0221 13.8777 70.173 13.8777C70.949 13.8777 71.6589 13.3599 71.8696 12.5748L72.9735 8.45896C73.225 7.52123 72.6688 6.55726 71.7311 6.30554C70.7936 6.0543 69.8296 6.61023 69.5779 7.54795L68.474 11.6638C68.2225 12.6017 68.7787 13.5657 69.7164 13.8172Z" fill="#4C4C4C"></path>
  <path d="M78.7704 17.5648C79.0475 17.7249 79.3498 17.8008 79.6482 17.8008C80.2554 17.8008 80.8463 17.4856 81.1718 16.9219L85.4348 9.5415C85.9205 8.70104 85.6326 7.62574 84.792 7.14035C83.951 6.6545 82.8762 6.94254 82.3906 7.78324L78.1273 15.1636C77.6419 16.0041 77.9298 17.0794 78.7704 17.5648Z" fill="#4C4C4C"></path>
  <path d="M87.7896 24.0477C88.2394 24.0477 88.6894 23.8761 89.0325 23.533L92.0465 20.519C92.733 19.8323 92.733 18.7195 92.0465 18.033C91.36 17.3467 90.247 17.3467 89.5608 18.033L86.5467 21.047C85.8602 21.7337 85.8602 22.8465 86.5467 23.533C86.8898 23.8759 87.3396 24.0477 87.7896 24.0477Z" fill="#4C4C4C"></path>
  <path d="M101.625 37.1079L97.5072 38.2095C96.5694 38.4602 96.0126 39.424 96.2634 40.3619C96.4734 41.1476 97.184 41.6658 97.9602 41.6658C98.1107 41.6658 98.2635 41.6463 98.4156 41.6055L102.534 40.504C103.471 40.2532 104.028 39.2895 103.777 38.3515C103.527 37.4138 102.562 36.8571 101.625 37.1079Z" fill="#4C4C4C"></path>
  <path d="M97.5442 50.0834C97.5442 51.0544 98.3312 51.8412 99.302 51.8412H107.824C108.795 51.8412 109.582 51.0544 109.582 50.0834C109.582 49.1124 108.795 48.3256 107.824 48.3256H99.302C98.3312 48.3256 97.5442 49.1124 97.5442 50.0834Z" fill="#4C4C4C"></path>
  <path d="M98.4164 58.5543C97.4791 58.3031 96.5149 58.8597 96.2634 59.797C96.0119 60.7347 96.5684 61.6987 97.5061 61.9502L101.624 63.0541C101.776 63.0951 101.93 63.1145 102.08 63.1145C102.856 63.1145 103.566 62.5966 103.777 61.8114C104.028 60.8737 103.472 59.9097 102.534 59.6582L98.4164 58.5543Z" fill="#4C4C4C"></path>
</svg>
