<?xml version="1.0" encoding="UTF-8"?>
<svg xmlns="http://www.w3.org/2000/svg" width="134" height="121" viewBox="0 0 134 121" fill="none">
  <path d="M67 21.3714C52.5403 21.3714 40.9131 33.1118 40.9131 47.4583C40.9131 61.8429 52.6157 73.5453 67 73.5453C81.3572 73.5453 93.087 61.9275 93.087 47.4583C93.087 33.0294 81.3898 21.3714 67 21.3714ZM54.088 31.0643C54.6051 31.0794 55.1174 31.0893 55.6175 31.0958C57.0093 31.1136 59.3203 31.1433 59.8786 31.5414C60.1501 32.3404 58.9796 33.6719 57.5399 35.1996C55.9172 36.9216 54.0779 38.8731 54.4804 41.3522C54.9233 44.0952 57.1616 45.2123 58.4991 45.8793C58.8818 46.0703 59.5086 46.3833 59.6894 46.5696C59.6404 47.4617 58.4305 49.8458 56.8232 52.3444C54.4723 49.7908 50.5799 45.9758 46.4696 43.6987C47.3774 38.7216 50.0819 34.2234 54.088 31.0643ZM67 68.3279C56.2642 68.3279 47.3991 60.1786 46.2578 49.7417C50.8851 53.084 54.9653 58.1522 55.0159 58.2155C55.5113 58.8367 56.2624 59.1977 57.0554 59.1977C57.069 59.1977 57.0826 59.1977 57.0961 59.1975C57.904 59.1847 58.6608 58.7986 59.1447 58.1511C59.2058 58.0695 60.657 56.1236 62.0691 53.787C64.9222 49.0661 65.0529 47.006 64.8479 45.7361C64.4028 42.9951 62.1653 41.8786 60.8284 41.2113C60.5044 41.0496 60.0051 40.8004 59.7505 40.615C60.0635 40.1292 60.8119 39.3349 61.3365 38.7782C63.3246 36.6685 66.3291 33.4804 64.6822 29.5017C64.2103 28.365 63.4739 27.591 62.5752 27.0602C64.0154 26.7503 65.4956 26.5888 67 26.5888C73.6587 26.5888 79.8622 29.8272 83.746 35.0177C79.4448 34.3238 74.8391 34.647 72.6071 38.2606C69.712 42.9435 73.3214 46.8252 75.9643 49.7162C77.7491 51.6685 79.5948 53.6876 80.1131 55.8831C80.3748 56.9921 80.6821 59.1442 80.7343 63.1736C76.9311 66.5049 72.0953 68.3279 67 68.3279ZM85.5888 56.96C85.4803 56.1085 85.348 55.3512 85.191 54.6849C84.3609 51.1687 81.9458 48.5269 79.815 46.196C76.9144 43.0233 76.3965 42.0526 77.0453 41.0031C77.9672 39.511 81.9335 39.585 86.8885 41.1281C87.5372 43.1644 87.8696 45.2876 87.8696 47.4583C87.8696 50.8249 87.0768 54.0578 85.5888 56.96Z" fill="#4C4C4C"></path>
  <path d="M59.1738 120.5H74.8259C80.5796 120.5 85.2607 115.819 85.2607 110.065V102.239C85.2607 90.9047 90.6977 83.8808 96.4541 76.4442C102.494 68.6416 108.739 60.5734 108.739 47.4561C108.739 40.8246 107.144 34.2233 104.126 28.366C103.467 27.0856 101.893 26.5819 100.613 27.2416C99.332 27.9014 98.8288 29.4747 99.4885 30.7555C102.164 35.9502 103.522 41.5691 103.522 47.4561C103.522 58.7901 98.0845 65.814 92.3282 73.2506C86.6996 80.5221 80.8953 88.026 80.1304 99.63H53.869C53.1044 88.026 47.2998 80.5221 41.6712 73.2506C35.9152 65.814 30.4781 58.7901 30.4781 47.4561C30.4781 27.3181 46.8618 10.9344 66.9998 10.9344C73.0429 10.9344 79.0285 12.4402 84.3098 15.2889C85.5782 15.9734 87.1603 15.4996 87.8443 14.2313C88.5283 12.9635 88.0549 11.3808 86.7868 10.697C80.7469 7.43904 73.9045 5.71704 66.9998 5.71704C43.9849 5.71704 25.2607 24.4409 25.2607 47.4561C25.2607 60.5734 31.506 68.6416 37.5456 76.4442C43.3019 83.8808 48.739 90.9044 48.739 102.239V110.065C48.739 115.818 53.42 120.5 59.1738 120.5ZM53.9564 104.847H80.0433V110.065C80.0433 112.942 77.7028 115.282 74.8259 115.282H59.1738C56.2969 115.282 53.9564 112.942 53.9564 110.065V104.847Z" fill="#4C4C4C"></path>
  <path d="M131.174 44.8461H121.783C120.342 44.8461 119.174 46.0142 119.174 47.4548C119.174 48.8953 120.342 50.0635 121.783 50.0635H131.174C132.615 50.0635 133.783 48.8953 133.783 47.4548C133.783 46.0142 132.615 44.8461 131.174 44.8461Z" fill="#4C4C4C"></path>
  <path d="M2.82622 44.8461C1.38544 44.8461 0.217529 46.0142 0.217529 47.4548C0.217529 48.8953 1.38544 50.0635 2.82622 50.0635H12.2175C13.6583 50.0635 14.8262 48.8953 14.8262 47.4548C14.8262 46.0142 13.6583 44.8461 12.2175 44.8461H2.82622Z" fill="#4C4C4C"></path>
  <path d="M113.192 1.26425C112.174 0.245819 110.522 0.245819 109.503 1.26425L103.892 6.87555C102.873 7.89425 102.873 9.54607 103.892 10.565C104.911 11.5837 106.562 11.5837 107.581 10.565L113.192 4.95373C114.211 3.93503 114.211 2.28321 113.192 1.26425Z" fill="#4C4C4C"></path>
  <path d="M24.5724 93.5742L30.108 88.0385C31.1267 87.0198 31.1267 85.368 30.108 84.349C29.0893 83.3306 27.4375 83.3306 26.4186 84.349L20.8829 89.8847C19.8642 90.9034 19.8642 92.5552 20.8829 93.5742C21.9021 94.5929 23.5537 94.5929 24.5724 93.5742Z" fill="#4C4C4C"></path>
  <path d="M30.1083 10.565C31.1269 9.54633 31.1269 7.89451 30.1083 6.87555L24.497 1.26425C23.4783 0.245819 21.8264 0.245819 20.8075 1.26425C19.7888 2.28295 19.7888 3.93477 20.8075 4.95373L26.4188 10.565C27.438 11.5837 29.0896 11.5835 30.1083 10.565Z" fill="#4C4C4C"></path>
  <path d="M109.428 93.5742C110.447 94.5929 112.098 94.5929 113.117 93.5742C114.136 92.5555 114.136 90.9036 113.117 89.8847L107.581 84.349C106.563 83.3306 104.911 83.3306 103.892 84.349C102.873 85.3677 102.873 87.0196 103.892 88.0385L109.428 93.5742Z" fill="#4C4C4C"></path>
  <path d="M94.9129 22.6764C96.3536 22.6764 97.5216 21.5084 97.5216 20.0677C97.5216 18.6269 96.3536 17.459 94.9129 17.459C93.4722 17.459 92.3042 18.6269 92.3042 20.0677C92.3042 21.5084 93.4722 22.6764 94.9129 22.6764Z" fill="#4C4C4C"></path>
</svg>
